<?xml version="1.0" standalone="no"?>
<!DOCTYPE svg PUBLIC "-//W3C//DTD SVG 20010904//EN"
 "http://www.w3.org/TR/2001/REC-SVG-20010904/DTD/svg10.dtd">
<svg version="1.0" xmlns="http://www.w3.org/2000/svg"
 width="617.000000pt" height="617.000000pt" viewBox="0 0 617.000000 617.000000"
 preserveAspectRatio="xMidYMid meet">
<metadata>
Created by potrace 1.11, written by Peter Selinger 2001-2013
</metadata>
<g transform="translate(0.000000,617.000000) scale(0.100000,-0.100000)"
fill="#000000" stroke="none">
<path d="M3405 5202 c-11 -2 -31 -13 -44 -23 -13 -10 -42 -24 -65 -30 -48 -12
-135 -52 -187 -85 -20 -13 -39 -20 -43 -17 -3 3 -20 0 -38 -8 -46 -18 -171
-100 -164 -106 3 -3 13 0 21 7 18 15 75 21 75 9 0 -5 -21 -14 -46 -20 -36 -9
-54 -22 -85 -61 -21 -28 -36 -54 -33 -59 3 -5 -8 -31 -24 -57 -16 -26 -44 -73
-61 -104 -18 -32 -35 -58 -37 -58 -3 0 0 8 5 18 6 10 8 30 5 43 -3 19 -3 20 4
5 7 -15 16 -4 55 64 25 46 44 87 41 92 -11 17 -53 -34 -71 -86 -10 -29 -19
-44 -21 -34 -2 9 2 27 8 40 l11 23 -19 -22 c-11 -12 -22 -20 -25 -17 -8 8 -36
-44 -66 -122 -16 -40 -33 -68 -40 -66 -7 1 -9 -2 -6 -8 4 -6 0 -19 -7 -28 -8
-9 -18 -24 -22 -32 -4 -8 0 -6 8 4 9 11 16 17 16 13 0 -14 -29 -77 -35 -77 -3
0 -3 6 1 13 5 9 4 9 -6 0 -7 -6 -17 -22 -24 -34 -6 -13 -33 -34 -61 -48 -55
-28 -155 -119 -155 -141 0 -7 24 10 53 37 29 27 64 56 77 63 14 7 -6 -18 -45
-55 -43 -41 -65 -69 -57 -72 17 -7 61 23 96 64 17 20 34 32 43 29 8 -3 12 -2
8 3 -3 5 9 20 27 32 l33 23 -25 -28 c-25 -28 2 -16 182 75 24 12 28 11 28 -4
0 -7 -66 -45 -147 -86 -144 -71 -273 -147 -273 -160 0 -8 -78 -90 -110 -116
-14 -10 2 9 35 43 33 35 54 62 46 60 -30 -7 -143 -140 -170 -201 -34 -76 -65
-199 -57 -225 5 -14 -3 -26 -29 -46 -42 -33 -138 -157 -159 -207 -8 -19 -24
-73 -36 -119 -22 -91 -44 -138 -97 -211 -47 -66 -41 -73 11 -14 33 38 47 47
56 39 9 -9 0 -21 -35 -50 -25 -22 -51 -39 -58 -39 -7 0 -16 -3 -22 -6 -5 -4
-35 -14 -65 -24 -109 -35 -168 -74 -196 -127 -23 -44 -16 -43 26 4 38 44 114
88 175 102 25 5 8 -15 -103 -125 -74 -73 -143 -151 -155 -173 -11 -23 -43 -67
-70 -98 -39 -47 -46 -59 -33 -64 9 -3 23 -3 32 0 16 6 12 -6 -13 -35 -13 -15
-12 -17 3 -15 10 0 20 -7 22 -17 5 -23 -38 -87 -57 -84 -8 1 -24 -25 -41 -70
-16 -40 -24 -73 -19 -73 5 0 14 11 19 25 16 43 57 97 62 83 7 -19 -2 -39 -14
-32 -7 5 -8 2 -3 -6 9 -14 25 3 46 45 10 20 10 20 -5 1 -9 -11 -16 -15 -16 -9
0 23 39 37 52 19 4 -6 29 13 57 44 28 30 51 51 51 47 0 -5 6 -2 13 5 8 7 29
24 47 38 18 14 39 31 46 38 8 7 19 12 26 10 13 -3 160 90 166 105 2 4 10 7 18
7 8 0 14 4 14 10 0 5 11 12 25 16 14 3 22 11 18 17 -4 6 -1 7 6 2 14 -8 63 33
55 46 -3 5 2 6 10 3 10 -4 16 -1 16 9 0 9 5 19 12 23 7 4 8 3 4 -4 -5 -8 -2
-10 8 -6 9 3 14 10 11 14 -6 9 49 52 57 45 3 -3 5 2 5 9 0 16 -18 17 -29 2 -3
-5 -15 -11 -25 -12 -14 -2 -12 3 9 21 22 18 35 23 61 18 24 -3 53 3 98 22 35
15 78 28 94 29 17 2 59 14 95 28 158 63 144 41 -18 -26 -62 -26 -117 -44 -124
-40 -6 4 -8 3 -5 -3 4 -6 0 -14 -9 -17 -10 -4 -13 -2 -8 6 9 15 -66 -28 -102
-58 l-29 -24 60 26 c33 14 76 32 96 39 19 7 62 26 95 42 58 30 168 50 179 33
2 -4 -14 -8 -36 -8 -23 -1 -44 -3 -47 -6 -3 -3 17 -6 45 -6 49 0 50 -1 75 -47
l26 -48 -19 -73 c-13 -51 -19 -114 -20 -200 -1 -70 -4 -131 -7 -136 -13 -23
-21 -172 -10 -189 4 -7 7 -5 7 8 -1 41 17 174 24 181 4 4 7 -4 8 -17 1 -28 2
-34 23 -128 17 -75 18 -128 3 -148 -5 -7 -6 -17 -2 -23 3 -6 0 -24 -9 -40 -8
-17 -11 -30 -6 -30 4 0 10 -10 13 -22 l6 -23 21 22 c11 12 27 40 36 62 17 44
30 52 37 23 12 -49 -4 93 -18 153 -26 114 -41 310 -25 320 5 3 6 16 2 28 -5
12 -7 36 -6 52 1 17 2 38 3 49 1 26 23 7 57 -52 32 -55 134 -191 158 -211 9
-8 -13 34 -49 94 -36 59 -65 111 -65 115 0 11 -46 51 -52 45 -3 -3 -8 2 -12
11 -5 12 -2 15 11 10 15 -6 16 -5 6 5 -16 16 -17 65 -2 74 6 4 8 13 5 21 -3 8
3 20 14 26 11 7 20 18 20 25 0 13 52 53 70 53 10 0 10 -3 0 -15 -10 -12 -10
-15 0 -15 8 0 10 -9 5 -27 -5 -23 -4 -25 9 -14 14 11 16 11 16 -5 0 -17 1 -17
13 0 11 15 18 16 59 5 26 -7 45 -16 42 -20 -2 -4 6 -5 18 -1 14 3 19 2 14 -6
-4 -7 -1 -12 8 -12 9 0 16 -5 16 -12 0 -6 3 -8 7 -5 3 4 12 2 19 -4 19 -16 30
-5 58 57 28 60 53 66 42 10 -6 -29 -4 -28 29 18 19 27 37 57 40 67 9 28 35 23
35 -6 0 -25 0 -25 31 -9 25 13 29 18 18 26 -10 7 -8 8 7 3 16 -4 36 7 78 40
56 46 69 62 40 51 -9 -3 -12 -2 -9 5 4 6 14 8 22 5 9 -4 22 -1 29 5 8 6 14 8
14 5 0 -4 7 0 16 8 17 17 49 22 39 6 -3 -5 0 -10 7 -10 7 -1 3 -9 -10 -20 -13
-10 -24 -22 -25 -26 -2 -9 -26 -37 -119 -136 -39 -43 -68 -78 -63 -78 14 0
-19 -32 -57 -56 -21 -14 -38 -29 -38 -35 0 -6 -14 -31 -31 -55 -22 -33 -29
-52 -25 -69 4 -16 11 -22 21 -19 8 4 15 10 15 16 0 5 -4 7 -8 4 -5 -3 -6 8 -4
25 2 16 9 29 14 29 5 0 7 4 4 9 -3 5 4 11 15 14 20 5 20 5 4 -13 -12 -13 -16
-29 -12 -48 5 -23 0 -33 -28 -55 -19 -15 -39 -27 -46 -27 -7 0 -10 -11 -7 -29
3 -24 0 -32 -20 -40 -28 -13 -25 -33 9 -43 15 -5 4 -6 -31 -5 -31 2 -70 10
-87 19 -23 12 -34 13 -44 4 -7 -7 -10 -7 -6 0 7 11 -38 64 -54 64 -6 0 -8 4
-5 8 3 5 -1 9 -9 9 -22 0 -27 -28 -9 -48 9 -10 20 -16 25 -14 4 3 11 0 15 -6
4 -7 3 -9 -4 -5 -6 3 -13 2 -17 -4 -3 -5 10 -19 29 -31 20 -12 34 -24 32 -27
-2 -4 6 -8 17 -8 315 -19 293 -24 415 93 77 75 82 82 82 121 0 32 4 42 16 42
15 0 16 -10 12 -77 -3 -43 -3 -70 -1 -60 3 9 8 15 13 12 5 -3 12 0 16 6 4 8 3
9 -4 5 -9 -5 -12 7 -11 41 1 26 3 40 6 30 3 -10 10 -16 17 -14 6 3 27 -19 45
-48 51 -81 103 -95 115 -32 3 18 18 75 33 128 l26 96 48 21 c50 23 129 30 129
11 0 -6 -6 -9 -13 -6 -8 3 -20 1 -28 -4 -10 -6 -7 -9 13 -9 33 0 59 37 37 51
-8 5 -9 9 -4 9 17 0 46 -38 32 -43 -7 -2 -2 -2 10 -1 12 2 24 -2 26 -9 4 -9 6
-9 6 1 1 7 -6 15 -14 18 -12 5 -12 9 2 32 l15 27 -19 -24 c-17 -20 -21 -21
-26 -7 -4 9 -2 16 3 16 6 0 10 16 10 36 0 49 20 115 38 121 21 9 41 -16 22
-27 -11 -7 -10 -9 8 -7 17 1 21 6 16 22 -14 44 -14 49 1 17 11 -24 13 -38 5
-46 -12 -15 11 -100 35 -131 15 -18 15 -17 0 12 -18 39 -19 56 -2 50 6 -2 11
-12 9 -22 -2 -10 1 -14 7 -10 7 3 8 0 5 -9 -3 -9 -2 -16 2 -16 5 0 18 -21 29
-47 27 -62 87 -183 79 -158 -4 11 -17 49 -30 84 -12 36 -20 69 -17 75 3 5 1 6
-4 3 -7 -4 -21 19 -36 56 -14 34 -42 100 -61 146 -31 73 -33 85 -20 98 8 8 12
18 9 23 -3 5 0 10 6 12 9 3 -5 77 -36 183 -7 22 35 110 52 110 6 0 15 4 20 9
5 5 3 6 -4 2 -7 -4 -13 -3 -13 2 0 15 26 33 35 24 4 -4 2 4 -5 17 -10 20 -9
26 11 45 l23 21 -18 -23 c-11 -12 -17 -24 -14 -27 3 -3 18 13 33 35 15 22 32
37 38 33 6 -3 7 -1 3 6 -10 15 21 64 35 55 6 -4 5 -12 -3 -22 -12 -15 -11 -16
4 -3 10 7 16 17 13 20 -5 9 66 78 113 110 18 12 29 27 26 33 -4 6 -2 8 4 4 6
-3 13 -2 17 4 4 6 10 8 14 6 15 -10 30 11 33 46 1 20 6 34 11 31 4 -3 6 -11 3
-19 -3 -9 0 -11 11 -7 12 5 14 3 8 -8 -5 -8 11 3 36 23 24 20 43 41 41 47 -1
6 2 11 7 11 5 0 19 19 31 43 l22 42 -24 -23 c-20 -18 -27 -20 -35 -10 -13 16
-7 76 10 97 11 14 10 14 -5 2 -10 -7 -20 -28 -24 -47 -3 -19 -11 -37 -17 -41
-6 -3 -7 -1 -3 6 5 7 -3 15 -22 22 -29 10 -30 11 -16 37 8 16 10 28 4 30 -6 2
-10 8 -10 14 0 6 12 3 26 -7 15 -9 24 -13 20 -7 -3 5 10 13 29 16 41 8 111
-17 99 -35 -5 -8 -3 -9 5 -4 8 4 24 -4 42 -21 23 -22 32 -26 38 -15 13 20 24
-4 23 -48 0 -34 0 -35 11 -12 14 29 -8 73 -38 77 -11 2 -21 8 -23 13 -2 6 -8
11 -13 11 -6 0 -23 9 -38 21 -27 20 -28 23 -18 62 17 67 15 513 -3 562 -8 22
-14 42 -15 45 -4 28 -30 48 -72 57 -26 6 -57 14 -68 17 -13 5 -11 2 5 -8 19
-11 21 -15 8 -16 -17 0 -31 15 -34 37 -1 8 8 11 29 8 28 -4 27 -3 -5 6 -27 8
-38 17 -38 31 0 10 -4 17 -9 14 -5 -3 -16 21 -25 53 -9 32 -23 65 -32 72 -8 7
-21 24 -29 39 -13 24 -37 38 -157 89 -27 11 -48 25 -48 30 0 6 -12 11 -28 11
-15 0 -37 7 -48 15 -12 8 -33 16 -47 19 -14 2 -34 10 -44 16 -15 9 -12 10 17
5 32 -5 33 -4 10 6 -14 7 -106 14 -217 17 -176 4 -197 3 -263 -17 -94 -29 -86
-37 10 -10 40 11 80 18 89 16 12 -4 11 -5 -3 -6 -11 0 -27 -7 -35 -15 -19 -16
-114 -48 -156 -52 -16 -2 -50 -5 -75 -7 -25 -2 -56 -7 -70 -11 l-25 -7 25 20
c33 27 223 101 258 101 15 0 33 5 40 12 9 9 41 8 138 -1 69 -7 129 -10 132 -7
18 18 -272 43 -333 28z m65 -6 c0 -11 -19 -15 -25 -6 -3 5 1 10 9 10 9 0 16
-2 16 -4z m244 -61 c20 -9 41 -13 46 -10 6 4 20 -1 32 -9 12 -9 32 -16 45 -16
12 0 25 -5 29 -11 10 -16 -107 0 -127 18 -9 7 -33 17 -53 20 -20 3 -39 10 -42
14 -8 14 30 10 70 -6z m-201 -22 c-7 -2 -19 -2 -25 0 -7 3 -2 5 12 5 14 0 19
-2 13 -5z m-58 -44 c-33 -11 -82 -28 -108 -40 -26 -11 -51 -17 -56 -15 -5 3
-75 -21 -156 -54 -81 -34 -150 -59 -152 -56 -11 11 277 128 397 161 103 28
161 31 75 4z m220 11 c-3 -5 -14 -10 -23 -10 -10 0 -71 -16 -136 -35 -66 -19
-122 -33 -124 -30 -3 3 1 5 8 5 7 0 11 2 8 5 -3 4 -18 3 -33 -1 -16 -4 -22 -9
-16 -14 7 -4 -1 -7 -16 -7 -15 0 -63 -17 -107 -37 -43 -20 -80 -35 -83 -32 -7
7 162 85 241 110 90 29 139 39 131 26 -8 -13 -3 -13 32 1 23 9 84 24 116 28 5
1 5 -3 2 -9z m150 -70 c3 -5 23 -10 43 -10 56 0 189 -28 220 -46 15 -8 19 -13
8 -9 -95 29 -367 62 -391 47 -5 -4 -22 -7 -36 -8 -14 -1 -42 -9 -63 -19 -20
-10 -39 -15 -42 -12 -3 3 4 8 15 12 12 3 21 10 21 14 0 4 6 8 13 8 6 1 37 8
67 16 64 18 136 21 145 7z m-270 -80 c-3 -5 -16 -15 -28 -21 -21 -10 -21 -9 2
10 25 23 36 27 26 11z m-55 -24 c0 -2 -18 -15 -40 -30 -22 -14 -40 -24 -40
-22 0 5 71 56 77 56 2 0 3 -2 3 -4z m718 -68 c15 -15 16 -48 2 -48 -5 0 -10 9
-10 20 0 11 -4 20 -10 20 -5 0 -10 5 -10 10 0 14 13 13 28 -2z m-1454 -53 c-9
-14 -18 -25 -21 -25 -5 0 5 18 20 38 17 22 18 13 1 -13z m1146 -1 c-63 -13
-135 -31 -159 -39 -25 -8 -52 -15 -60 -14 -9 0 2 6 24 14 22 7 36 14 30 14
-27 4 79 34 145 40 133 14 137 10 20 -15z m115 -11 c-16 -2 -70 -10 -118 -19
-49 -8 -92 -13 -95 -10 -3 3 1 6 9 7 8 0 41 6 74 14 33 7 83 13 110 13 28 -1
37 -3 20 -5z m80 -77 c17 0 33 -4 36 -9 3 -4 18 -3 32 2 27 10 34 2 28 -32 -1
-5 3 -6 9 -2 15 9 50 -13 50 -33 0 -25 67 -152 76 -144 4 4 5 2 1 -3 -3 -6 1
-35 9 -65 14 -52 21 -256 9 -268 -2 -3 -20 11 -39 30 -19 19 -52 42 -74 51
-45 18 -112 57 -98 57 5 0 6 3 3 7 -8 7 -36 -26 -37 -42 0 -5 5 -3 10 5 6 10
10 11 10 3 0 -7 -9 -22 -21 -34 -11 -11 -18 -24 -14 -27 3 -4 10 0 15 8 5 8
15 15 22 15 7 0 12 8 10 17 -1 9 2 19 8 23 6 4 9 1 8 -6 -2 -7 2 -13 9 -14 6
0 15 -4 20 -9 4 -5 3 -6 -4 -3 -6 4 -13 2 -15 -3 -2 -6 -13 -12 -25 -12 -11
-1 -26 -10 -32 -20 -13 -21 -1 -24 18 -5 11 10 12 9 6 -1 -4 -7 -18 -17 -32
-23 -13 -5 -21 -14 -18 -19 3 -6 -1 -13 -9 -16 -9 -3 -13 -11 -10 -18 3 -6 -2
-2 -10 8 -16 19 -16 19 -14 -6 2 -26 3 -26 35 -13 19 8 31 10 28 5 -3 -6 -1
-10 4 -10 6 0 11 5 11 11 0 6 7 8 16 5 10 -4 13 -2 8 6 -5 8 -2 9 9 5 46 -19
53 -19 32 -2 -13 11 -32 15 -56 12 -26 -3 -36 -1 -36 9 0 10 16 14 58 14 62 0
112 -16 102 -33 -3 -6 -1 -7 4 -4 14 9 70 -11 76 -26 2 -7 1 -21 -4 -32 l-8
-20 -1 20 c-2 11 -2 23 -1 27 1 9 -39 21 -46 14 -4 -3 1 -6 10 -6 9 0 17 -7
17 -15 0 -8 8 -23 18 -33 19 -19 21 -54 2 -60 -5 -2 -8 -7 -5 -11 2 -5 -1 -16
-8 -26 -12 -15 -13 -12 -9 19 3 22 -2 45 -12 60 -18 28 -74 59 -89 49 -5 -3
-7 -1 -3 5 4 7 -13 10 -54 9 -49 -2 -57 -4 -44 -14 9 -6 23 -9 32 -6 10 4 14
3 10 -2 -4 -4 -20 -9 -35 -10 -68 -5 -64 -1 -57 -57 4 -28 13 -58 20 -67 8 -9
20 -25 29 -36 12 -16 14 -17 9 -2 -5 15 -3 16 17 8 13 -5 23 -16 23 -25 -2
-17 5 -19 48 -16 34 2 55 -9 38 -20 -9 -6 -6 -10 9 -15 22 -7 25 -23 21 -94
-2 -46 -19 -69 -90 -126 -33 -26 -57 -52 -54 -56 3 -5 -1 -6 -9 -3 -9 3 -33
-16 -62 -48 -26 -29 -52 -52 -56 -51 -5 2 -6 -4 -3 -12 3 -7 -4 -22 -15 -32
-25 -21 -29 -42 -4 -22 14 12 14 10 -1 -13 -21 -32 -28 -35 -20 -10 4 15 3 15
-8 -2 -7 -10 -28 -38 -45 -61 -18 -24 -42 -67 -54 -97 -23 -59 -39 -82 -39
-55 0 16 -20 25 -20 10 -1 -5 -18 -27 -38 -50 -33 -37 -43 -42 -97 -48 -33 -4
-57 -4 -53 0 4 4 20 9 35 11 126 13 120 30 -9 27 -94 -2 -107 0 -150 23 -26
14 -53 24 -60 23 -7 -1 -26 3 -41 9 -16 7 -34 12 -41 12 -7 0 -21 7 -32 15
-18 13 -18 14 6 9 14 -3 -18 16 -70 41 -149 71 -145 69 -142 92 3 23 -44 67
-61 56 -6 -4 -8 0 -4 10 4 10 -4 32 -19 55 -22 32 -25 45 -22 99 4 57 2 61
-14 52 -13 -7 -18 -21 -18 -49 0 -21 -4 -42 -10 -45 -5 -3 -10 3 -10 14 0 31
-18 34 -23 4 -4 -26 -4 -25 -6 5 0 18 6 54 13 80 81 260 89 283 104 277 10 -4
13 0 10 13 -3 11 -1 28 5 38 15 28 2 14 -27 -29 -14 -21 -36 -68 -48 -105 -26
-77 -26 -77 -33 -70 -18 17 119 295 156 319 12 7 12 9 1 9 -10 0 -6 14 13 45
14 25 29 64 33 88 4 23 10 40 14 37 8 -7 48 30 48 44 -1 6 -9 1 -19 -11 -10
-12 -21 -20 -24 -17 -2 3 -13 -6 -23 -18 -39 -49 -42 -37 -5 19 60 91 77 129
46 103 -8 -7 -15 -10 -15 -7 0 9 190 193 195 188 3 -2 5 1 5 8 0 8 6 11 16 7
8 -3 13 -2 10 3 -6 10 1 13 82 42 35 12 51 14 47 6 -4 -7 -1 -5 7 4 17 20 194
75 288 88 157 23 196 27 235 22 22 -2 54 -5 70 -5z m-502 -3 c-7 -2 -19 -2
-25 0 -7 3 -2 5 12 5 14 0 19 -2 13 -5z m757 -21 c-8 -3 -23 -9 -33 -14 -12
-6 -17 -5 -15 4 6 26 22 36 43 25 16 -8 17 -11 5 -15z m-807 11 c-7 -2 -19 -2
-25 0 -7 3 -2 5 12 5 14 0 19 -2 13 -5z m697 -13 c0 -5 -2 -10 -4 -10 -3 0 -8
5 -11 10 -3 6 -1 10 4 10 6 0 11 -4 11 -10z m-617 -17 c-7 -2 -19 -2 -25 0 -7
3 -2 5 12 5 14 0 19 -2 13 -5z m742 -23 c3 -5 2 -10 -4 -10 -5 0 -13 5 -16 10
-3 6 -2 10 4 10 5 0 13 -4 16 -10z m105 -37 c6 -21 14 -62 17 -90 3 -29 9 -53
12 -53 4 0 6 -12 5 -27 -1 -16 -3 -43 -3 -62 -2 -58 -11 -28 -17 55 -4 43 -14
109 -24 147 -17 70 -9 95 10 30z m-182 -18 c-3 -3 -9 2 -12 12 -6 14 -5 15 5
6 7 -7 10 -15 7 -18z m44 -39 c3 5 4 4 2 -2 -1 -7 6 -28 17 -48 10 -20 19 -39
19 -43 0 -14 -58 82 -64 107 l-7 25 14 -24 c8 -13 16 -20 19 -15z m-1162 -131
c-7 -9 -15 -13 -17 -11 -7 7 7 26 19 26 6 0 6 -6 -2 -15z m1217 -27 c1 -28 -2
-37 -8 -27 -13 21 -10 70 5 69 1 0 2 -19 3 -42z m-153 -171 c3 3 6 1 6 -5 0
-16 -12 -15 -36 4 -18 15 -18 15 2 5 12 -6 24 -7 28 -4z m-1162 -69 c-8 -8 -9
-4 -5 13 4 13 8 18 11 10 2 -7 -1 -18 -6 -23z m-41 -70 c-17 -23 -31 -37 -31
-31 0 6 7 16 15 23 8 7 15 19 15 26 0 8 5 14 11 14 6 0 8 9 4 23 -5 19 -5 20
5 4 9 -14 6 -25 -19 -59z m1029 -43 c0 -17 16 -20 25 -5 4 6 12 4 21 -5 9 -8
26 -15 40 -15 15 0 24 -6 24 -15 0 -8 -7 -15 -15 -15 -21 0 -19 -16 6 -41 17
-17 23 -18 32 -7 7 8 19 18 27 23 9 6 7 2 -3 -7 -14 -13 -15 -18 -6 -19 8 0
-1 -7 -18 -15 -41 -18 -42 -27 -3 -20 17 2 28 0 24 -5 -6 -11 -64 -12 -64 -1
0 4 6 14 13 21 10 11 9 13 -6 8 -10 -4 -15 -3 -12 2 7 12 -15 26 -24 15 -11
-16 -35 -10 -53 13 -19 23 -24 48 -8 38 6 -4 8 -11 4 -16 -3 -5 0 -8 8 -7 7 2
12 -2 11 -7 -1 -6 8 -12 19 -12 18 -2 14 5 -20 40 -41 41 -53 67 -32 67 6 0
10 -7 10 -15z m-1629 -82 c-5 -10 -30 -42 -55 -71 -50 -59 -60 -79 -21 -42 14
13 25 19 25 13 0 -12 -43 -47 -115 -96 -22 -15 -51 -35 -65 -44 -13 -10 -21
-12 -16 -5 10 17 2 15 -54 -13 -87 -44 -54 -19 45 34 84 46 104 62 176 146 79
93 99 112 80 78z m24 -10 c-24 -37 -57 -74 -63 -68 -4 4 69 94 77 95 2 0 -5
-12 -14 -27z m-248 -47 c3 -59 0 -68 -30 -107 -46 -60 -57 -61 -46 -2 13 68
29 114 51 146 11 15 20 27 21 27 1 0 3 -29 4 -64z m2071 5 c-7 -9 -13 -17 -14
-19 0 -1 -1 12 -2 29 -1 25 2 28 14 18 11 -9 12 -15 2 -28z m-31 7 c-3 -8 -6
-5 -6 6 -1 11 2 17 5 13 3 -3 4 -12 1 -19z m157 -73 c-1 -8 2 -12 7 -9 5 3 9
0 9 -6 0 -6 -10 -15 -22 -20 -21 -8 -21 -9 -3 -9 14 -1 16 -4 7 -13 -8 -8 -15
-8 -27 2 -13 11 -14 10 -9 -4 9 -23 -5 -20 -26 6 -10 13 -15 27 -12 33 10 16
9 45 0 39 -5 -4 -7 -13 -3 -23 4 -11 3 -13 -5 -5 -6 6 -8 24 -4 42 l6 32 42
-25 c22 -14 40 -32 40 -40z m-151 42 c3 -8 2 -20 -3 -26 -5 -9 -7 -4 -7 13 0
29 2 32 10 13z m-2253 -251 c0 -3 -15 -14 -32 -26 l-33 -22 28 26 c27 25 37
31 37 22z m755 -106 c-13 -36 -24 -60 -25 -55 -1 15 44 138 47 128 1 -4 -8
-37 -22 -73z m-755 31 c0 -5 -17 -21 -37 -37 -20 -15 -32 -21 -27 -13 5 8 9
19 9 24 0 6 5 10 12 10 7 0 18 6 25 13 14 14 18 15 18 3z m2050 -55 c0 -2 -8
-10 -17 -17 -16 -13 -17 -12 -4 4 13 16 21 21 21 13z m-1070 -86 c0 -10 -7 -7
-20 10 -11 14 -20 32 -20 40 0 10 7 7 20 -10 11 -14 20 -32 20 -40z m-1044 22
c-18 -16 -18 -16 -6 6 6 13 14 21 18 18 3 -4 -2 -14 -12 -24z m204 -2 c-12 -8
-8 -10 15 -11 26 -1 25 -2 -10 -8 -22 -4 -51 -11 -65 -15 -16 -5 -11 1 15 17
37 23 78 39 45 17z m-110 -55 c-14 -8 -29 -14 -35 -14 -5 0 1 6 15 14 14 8 30
14 35 14 6 0 -1 -6 -15 -14z m850 -105 c0 -5 -5 -10 -11 -10 -5 0 -7 5 -4 10
3 6 8 10 11 10 2 0 4 -4 4 -10z m69 -4 c10 -12 9 -14 -6 -11 -10 2 -22 4 -26
4 -10 1 1 21 12 21 5 0 14 -6 20 -14z m-99 -45 c-14 -28 -5 -26 28 4 47 44 45
27 -5 -30 -26 -30 -54 -55 -62 -55 -7 0 -11 -6 -8 -14 6 -14 -38 -60 -86 -90
l-29 -18 23 31 c13 17 27 31 32 31 5 0 21 10 35 22 15 11 19 18 10 15 -31 -11
-29 11 4 39 18 15 33 30 34 33 1 14 28 61 31 57 3 -2 0 -14 -7 -25z m-825 -40
c-6 -5 -45 -31 -87 -58 -43 -28 -75 -53 -70 -58 4 -5 2 -5 -5 -1 -7 4 -31 -5
-54 -19 -22 -15 -43 -25 -45 -22 -5 5 123 89 206 136 57 32 71 38 55 22z m673
-33 c-9 -13 -30 -47 -47 -75 -18 -29 -35 -53 -37 -53 -7 0 27 62 59 108 32 44
50 59 25 20z m1189 -45 c-3 -10 -5 -4 -5 12 0 17 2 24 5 18 2 -7 2 -21 0 -30z
m-547 17 c8 -5 11 -10 5 -10 -5 0 -17 5 -25 10 -8 5 -10 10 -5 10 6 0 17 -5
25 -10z m420 -20 c-12 -16 -24 -30 -26 -30 -3 0 4 14 16 30 12 17 24 30 26 30
3 0 -4 -13 -16 -30z m-350 -10 c8 -5 11 -10 5 -10 -5 0 -17 5 -25 10 -8 5 -10
10 -5 10 6 0 17 -5 25 -10z m487 -32 c-3 -8 -6 -5 -6 6 -1 11 2 17 5 13 3 -3
4 -12 1 -19z m-662 3 c-3 -5 3 -11 12 -13 15 -3 12 -10 -17 -38 -19 -19 -34
-42 -32 -50 1 -9 -1 -10 -4 -3 -3 7 -12 9 -20 6 -10 -4 -12 -8 -5 -12 6 -4 -5
-7 -24 -7 -19 0 -31 2 -27 6 4 3 13 13 21 23 12 16 12 18 0 15 -8 -2 -17 -7
-20 -11 -3 -4 -11 -2 -17 6 -10 11 -6 20 17 45 16 16 28 32 26 34 -2 2 19 5
46 6 29 1 48 -2 44 -7z m-705 -7 c0 -6 -147 -74 -158 -73 -6 1 146 78 156 79
1 0 2 -3 2 -6z m-680 -8 c0 -2 -8 -10 -17 -17 -16 -13 -17 -12 -4 4 13 16 21
21 21 13z m1453 -3 c-7 -2 -19 -2 -25 0 -7 3 -2 5 12 5 14 0 19 -2 13 -5z
m398 -36 c-10 -9 -11 -8 -5 6 3 10 9 15 12 12 3 -3 0 -11 -7 -18z m-404 -121
c-57 -58 -107 -106 -111 -106 -4 0 41 49 101 109 59 61 109 108 111 107 1 -2
-44 -51 -101 -110z m-1517 98 c0 -3 -39 -24 -87 -46 -75 -35 -101 -54 -178
-132 -60 -61 -107 -120 -142 -180 -29 -49 -53 -86 -53 -82 0 24 80 164 124
218 29 34 53 67 53 72 2 10 162 125 177 127 6 1 14 1 17 1 3 -1 23 5 45 13 47
17 44 16 44 9z m683 -46 c-39 -41 -40 -44 -23 -61 16 -16 18 -16 24 -2 3 9 4
20 2 24 -3 4 4 13 15 19 19 12 18 10 -3 -30 -12 -24 -21 -50 -19 -58 4 -21 -3
-12 -32 39 l-24 44 46 33 c61 43 63 42 14 -8z m-193 28 c0 -2 -7 -7 -16 -10
-8 -3 -12 -2 -9 4 6 10 25 14 25 6z m1080 -49 c0 -2 -12 -14 -27 -28 l-28 -24
24 28 c23 25 31 32 31 24z m600 -57 c0 -5 -2 -10 -4 -10 -3 0 -8 5 -11 10 -3
6 -1 10 4 10 6 0 11 -4 11 -10z m10 -24 c0 -3 -4 -8 -10 -11 -5 -3 -10 -1 -10
4 0 6 5 11 10 11 6 0 10 -2 10 -4z m-2490 -31 c-13 -14 -28 -25 -33 -25 -6 0
0 11 13 25 13 14 28 25 33 25 6 0 0 -11 -13 -25z m395 5 c-9 -14 -135 -103
-140 -98 -4 3 135 108 143 108 2 0 0 -4 -3 -10z m1429 -20 c-10 -16 -24 -32
-31 -35 -8 -2 -2 11 13 30 32 43 41 45 18 5z m45 -87 c7 -14 9 -10 7 18 -2 20
-7 42 -11 50 -20 35 8 -3 45 -59 38 -59 41 -62 80 -62 27 0 39 -4 35 -11 -4
-5 -8 -21 -10 -35 -4 -38 -20 -50 -50 -36 -14 6 -25 18 -25 26 0 9 -6 13 -14
10 -17 -6 -66 51 -66 77 0 10 -6 18 -12 17 -7 -2 -13 6 -13 17 0 11 -3 25 -6
30 -4 6 -2 21 4 35 9 24 10 23 18 -17 4 -24 12 -51 18 -60z m-1949 38 c0 -6
-12 -23 -26 -38 -24 -27 -25 -27 -13 -3 20 41 39 62 39 41z m1812 -20 c-9 -16
-19 -28 -23 -25 -3 2 -14 -5 -24 -16 -10 -11 -22 -20 -28 -20 -7 0 81 88 90
90 1 0 -5 -13 -15 -29z m87 -21 c0 -9 -4 -8 -9 5 -5 11 -9 27 -9 35 0 9 4 8 9
-5 5 -11 9 -27 9 -35z m-1605 3 c4 -10 4 -14 0 -10 -4 4 -17 1 -28 -6 -52 -33
-81 -50 -76 -45 4 5 92 76 96 77 1 1 5 -7 8 -16z m1880 -139 c-26 -97 -43
-143 -44 -116 0 7 -4 11 -9 7 -10 -5 -71 62 -71 79 0 5 3 7 6 3 4 -3 20 1 36
9 17 9 27 18 24 21 -8 9 23 63 37 63 8 0 7 4 -3 10 -12 8 -11 10 7 10 12 0 25
5 28 11 17 27 13 -6 -11 -97z m-367 59 c-3 -10 -5 -4 -5 12 0 17 2 24 5 18 2
-7 2 -21 0 -30z m121 -44 l-3 -44 -5 52 c-3 29 -1 48 3 44 5 -5 7 -28 5 -52z
m-720 16 c-3 -3 -9 2 -12 12 -6 14 -5 15 5 6 7 -7 10 -15 7 -18z m622 -99 c0
-26 -6 -18 -14 19 -5 22 -4 26 4 15 5 -8 10 -24 10 -34z m-10 -29 c0 -2 -15
-16 -32 -33 l-33 -29 29 33 c28 30 36 37 36 29z m-25 -67 c-3 -5 -12 -10 -18
-10 -7 0 -6 4 3 10 19 12 23 12 15 0z m-88 -16 c-3 -3 -12 -4 -19 -1 -8 3 -5
6 6 6 11 1 17 -2 13 -5z m-60 -10 c-3 -3 -12 -4 -19 -1 -8 3 -5 6 6 6 11 1 17
-2 13 -5z m-1851 -51 c-8 -15 -15 -25 -16 -21 0 12 23 58 27 54 3 -2 -2 -17
-11 -33z"/>
<path d="M3488 5043 c7 -3 16 -2 19 1 4 3 -2 6 -13 5 -11 0 -14 -3 -6 -6z"/>
<path d="M3400 4550 c-13 -8 -13 -10 2 -10 9 0 20 5 23 10 8 13 -5 13 -25 0z"/>
<path d="M3521 4500 c-24 -5 -49 -15 -57 -21 -8 -6 -29 -15 -47 -20 l-32 -8
35 5 c19 3 75 8 124 11 69 4 87 2 81 -7 -5 -8 -3 -11 6 -8 21 7 82 -28 136
-79 26 -25 38 -39 27 -29 -12 9 -31 19 -43 21 -11 3 -31 8 -43 11 -25 7 -221
23 -226 18 -6 -4 51 -13 132 -19 44 -4 89 -11 100 -16 17 -7 15 -8 -9 -5 -106
16 -134 17 -168 3 -19 -9 -38 -13 -40 -10 -11 10 -47 -8 -40 -20 4 -7 -1 -6
-11 2 -9 8 -15 20 -12 28 3 7 1 13 -4 13 -15 0 -12 17 7 36 13 13 14 16 3 12
-8 -2 -21 -15 -27 -29 -21 -41 -14 -127 10 -112 6 3 7 1 3 -6 -12 -18 12 -40
51 -47 28 -5 38 -3 45 10 5 9 13 14 17 12 5 -3 13 5 18 17 12 27 50 28 106 3
45 -20 50 -41 7 -32 -30 6 -30 6 -11 -15 43 -47 118 -67 108 -29 -3 11 -1 23
4 26 9 5 13 -16 10 -43 -1 -7 3 -13 9 -13 5 0 10 -9 10 -20 0 -11 5 -20 10
-20 11 0 13 135 2 162 -4 9 -22 29 -41 43 -45 32 -33 33 15 0 20 -14 40 -22
44 -20 5 3 12 0 16 -6 4 -7 3 -10 -2 -6 -5 3 -9 -25 -9 -64 0 -67 9 -91 18
-46 l4 22 2 -22 c1 -29 15 -29 53 -2 19 14 27 27 23 37 -3 9 -3 13 1 10 4 -4
16 4 26 18 25 31 17 43 -10 14 -15 -16 -22 -18 -27 -9 -6 8 -4 10 5 4 9 -5 10
-2 6 12 -4 13 0 25 11 34 17 13 17 13 3 -5 -14 -18 -14 -19 6 -8 11 6 26 17
32 24 13 16 5 61 -9 52 -5 -3 -9 1 -9 8 0 7 -12 1 -25 -14 -31 -36 -43 -36
-16 -2 25 32 25 32 -79 83 -36 18 -78 40 -95 49 -35 19 -168 26 -234 12z m279
-116 c0 -2 -9 0 -20 6 -11 6 -20 13 -20 16 0 2 9 0 20 -6 11 -6 20 -13 20 -16z
m110 12 c0 -2 -8 -10 -17 -17 -16 -13 -17 -12 -4 4 13 16 21 21 21 13z m-479
-81 c5 3 6 -1 2 -10 -9 -24 -23 2 -21 40 l1 30 4 -33 c2 -18 8 -30 14 -27z
m413 17 c19 -27 19 -27 -12 2 -35 32 -38 38 -19 30 6 -3 21 -17 31 -32z m127
-5 c-10 -9 -11 -8 -5 6 3 10 9 15 12 12 3 -3 0 -11 -7 -18z m-318 6 c-13 -2
-35 -2 -50 0 -16 2 -5 4 22 4 28 0 40 -2 28 -4z m-143 -13 c-8 -5 -19 -10 -25
-10 -5 0 -3 5 5 10 8 5 20 10 25 10 6 0 3 -5 -5 -10z m376 -22 c5 -7 3 -8 -6
-3 -9 5 -10 2 -5 -14 3 -11 2 -21 -3 -21 -17 0 -21 13 -11 31 11 22 15 23 25
7z m-86 -19 c0 -6 -4 -7 -10 -4 -5 3 -10 11 -10 16 0 6 5 7 10 4 6 -3 10 -11
10 -16z m-343 -24 c0 -8 -4 -12 -9 -9 -5 3 -6 10 -3 15 9 13 12 11 12 -6z
m297 -63 c3 -5 -1 -9 -9 -9 -8 0 -12 4 -9 9 3 4 7 8 9 8 2 0 6 -4 9 -8z"/>
<path d="M3529 4230 c-1 -8 -1 -19 0 -23 1 -4 -16 -6 -36 -3 -21 3 -29 3 -18
0 11 -3 48 -19 83 -35 71 -32 76 -34 66 -17 -4 7 -3 8 5 4 6 -4 9 -11 6 -16
-3 -5 5 -14 17 -21 22 -12 22 -11 8 6 -14 17 -14 17 6 7 12 -6 26 -7 35 -1 12
7 12 9 -1 10 -8 1 -18 1 -22 0 -5 0 -8 3 -8 7 0 12 -82 70 -105 74 -11 1 -23
8 -27 13 -5 6 -8 4 -9 -5z m26 -48 c-3 -3 -11 0 -18 7 -9 10 -8 11 6 5 10 -3
15 -9 12 -12z"/>
<path d="M3905 4159 c-4 -6 -5 -12 -2 -15 2 -3 7 2 10 11 7 17 1 20 -8 4z"/>
<path d="M3843 4143 c9 -2 25 -2 35 0 9 3 1 5 -18 5 -19 0 -27 -2 -17 -5z"/>
<path d="M3590 4130 c0 -5 5 -10 11 -10 5 0 7 5 4 10 -3 6 -8 10 -11 10 -2 0
-4 -4 -4 -10z"/>
<path d="M3730 4129 c0 -6 9 -9 19 -6 12 3 22 -1 25 -9 3 -8 11 -14 18 -14 10
0 10 2 -1 9 -7 5 -10 14 -7 20 5 7 -4 11 -23 11 -17 0 -31 -5 -31 -11z"/>
<path d="M3630 4106 c0 -2 7 -7 16 -10 8 -3 12 -2 9 4 -6 10 -25 14 -25 6z"/>
<path d="M4050 4070 c-12 -7 -10 -9 7 -7 12 0 19 5 17 9 -6 10 -6 10 -24 -2z"/>
<path d="M4012 3944 c-2 -48 2 -67 18 -87 14 -18 20 -40 20 -78 0 -29 2 -50 5
-47 6 6 7 87 2 113 -3 11 -10 19 -16 18 -13 -3 -20 23 -24 92 -3 48 -3 48 -5
-11z"/>
<path d="M3102 3920 c0 -14 2 -19 5 -12 2 6 2 18 0 25 -3 6 -5 1 -5 -13z"/>
<path d="M4031 3904 c0 -11 3 -14 6 -6 3 7 2 16 -1 19 -3 4 -6 -2 -5 -13z"/>
<path d="M3712 3879 c-12 -5 -27 -20 -34 -34 -17 -38 15 -93 60 -101 21 -4 29
-9 22 -14 -9 -5 -6 -10 9 -15 14 -4 20 -12 17 -21 -3 -8 -3 -14 0 -14 12 0 21
45 10 52 -7 5 -5 8 7 8 9 0 17 -7 17 -16 0 -10 6 -14 15 -11 8 4 17 2 20 -3 3
-5 -5 -10 -17 -12 -12 -2 -23 -9 -26 -17 -3 -9 0 -11 9 -5 12 6 12 5 1 -8 -7
-8 -9 -24 -5 -33 4 -13 3 -16 -5 -11 -16 9 -15 -7 0 -22 15 -15 18 -14 -62
-16 -36 -1 -55 -1 -42 2 12 2 22 7 22 12 0 5 -15 4 -32 -1 -18 -5 -75 -10
-125 -10 -81 0 -94 -2 -103 -19 -15 -28 -13 -30 21 -30 16 0 28 -4 25 -9 -6
-10 34 -56 74 -84 14 -10 19 -15 11 -11 -9 5 -12 3 -7 -4 4 -7 13 -12 19 -12
7 0 31 -9 52 -21 36 -19 37 -20 10 -15 -52 12 -75 14 -75 10 0 -7 127 -64 143
-64 31 0 48 -12 37 -25 -8 -9 -8 -15 0 -20 5 -3 10 -1 10 5 0 6 5 8 10 5 15
-9 12 7 -5 31 -8 12 -28 27 -45 34 -17 7 -29 14 -27 17 2 2 24 -5 48 -15 50
-21 68 -18 147 23 54 28 62 39 38 52 -8 4 -24 29 -35 56 -19 44 -53 72 -74 60
-4 -3 -15 1 -23 8 -13 10 -12 14 3 32 10 11 12 17 6 13 -17 -10 -16 5 2 31 8
12 12 28 9 37 -7 18 -4 19 20 10 12 -5 14 -10 6 -19 -7 -8 -7 -25 0 -51 l10
-39 -5 39 c-2 22 1 46 7 54 9 10 9 15 -2 22 -7 4 -11 17 -7 29 6 24 3 25 -24
11 -15 -8 -19 -7 -19 4 0 11 10 14 47 10 26 -3 52 -10 58 -16 7 -7 2 -9 -17
-6 -22 4 -26 2 -19 -11 5 -9 7 -21 4 -27 -5 -15 68 -10 95 6 15 11 22 25 22
47 0 18 -5 33 -11 33 -5 0 -8 -4 -5 -9 4 -5 -4 -7 -16 -4 -19 4 -20 3 -8 -6
12 -9 11 -11 -7 -11 -30 0 -39 3 -35 14 2 5 -3 6 -11 3 -8 -3 -20 -1 -28 5
-11 8 -11 9 3 5 9 -3 22 2 30 11 10 12 10 14 0 8 -8 -4 -19 0 -30 12 -11 13
-35 22 -68 26 -43 5 -53 3 -69 -14 -21 -23 -36 -25 -53 -8 -9 9 -8 16 6 32 9
11 11 16 5 12 -7 -4 -13 -3 -13 2 0 5 10 13 22 19 28 12 10 23 -20 12z m268
-181 c0 -6 -7 -7 -16 -4 -9 3 -21 6 -27 6 -7 0 -7 4 2 9 16 10 41 4 41 -11z
m-473 -124 c-3 -3 -12 -4 -19 -1 -8 3 -5 6 6 6 11 1 17 -2 13 -5z m238 -84 c3
-6 -1 -7 -9 -4 -18 7 -21 14 -7 14 6 0 13 -4 16 -10z m40 -18 c-3 -3 -11 0
-18 7 -9 10 -8 11 6 5 10 -3 15 -9 12 -12z m26 -32 c27 -12 36 -20 24 -20 -25
1 -106 38 -84 39 9 1 36 -8 60 -19z"/>
<path d="M3890 3830 c8 -5 20 -10 25 -10 6 0 3 5 -5 10 -8 5 -19 10 -25 10 -5
0 -3 -5 5 -10z"/>
<path d="M3926 3812 c-2 -4 4 -8 14 -8 10 0 16 4 14 8 -3 4 -9 8 -14 8 -5 0
-11 -4 -14 -8z"/>
<path d="M4033 3715 c0 -8 4 -15 9 -15 4 0 8 4 8 9 0 6 -4 12 -8 15 -5 3 -9
-1 -9 -9z"/>
<path d="M3765 3600 c-3 -6 1 -7 9 -4 18 7 21 14 7 14 -6 0 -13 -4 -16 -10z"/>
<path d="M3750 3310 c-9 -6 -10 -10 -3 -10 6 0 15 5 18 10 8 12 4 12 -15 0z"/>
<path d="M3505 3150 c-3 -5 -1 -10 4 -10 6 0 11 5 11 10 0 6 -2 10 -4 10 -3 0
-8 -4 -11 -10z"/>
<path d="M4360 3850 c0 -5 6 -10 14 -10 8 0 17 -6 19 -12 4 -10 6 -10 6 -1 1
7 -8 17 -19 23 -14 7 -20 7 -20 0z"/>
<path d="M3200 3040 c0 -5 7 -7 15 -4 8 4 15 8 15 10 0 2 -7 4 -15 4 -8 0 -15
-4 -15 -10z"/>
<path d="M3191 3013 c16 -26 25 -29 35 -10 4 6 3 9 -1 4 -5 -4 -17 1 -28 10
-19 18 -19 17 -6 -4z"/>
<path d="M3365 2682 c2 -44 12 -65 26 -57 5 4 9 0 9 -7 0 -9 3 -9 10 2 5 8 10
10 10 5 0 -6 10 -11 23 -12 l22 -2 -23 13 c-13 7 -36 31 -51 55 l-28 42 2 -39z
m25 -40 c0 -15 -2 -15 -10 -2 -13 20 -13 33 0 25 6 -3 10 -14 10 -23z"/>
<path d="M3262 5164 c-92 -27 -300 -123 -321 -148 -7 -9 38 10 100 42 132 66
149 73 247 102 39 12 72 24 72 26 0 7 -11 4 -98 -22z"/>
<path d="M3240 5080 c-8 -5 -10 -10 -5 -10 6 0 17 5 25 10 8 5 11 10 5 10 -5
0 -17 -5 -25 -10z"/>
<path d="M2894 4984 c-18 -14 -18 -15 4 -4 12 6 22 13 22 15 0 8 -5 6 -26 -11z"/>
<path d="M2792 4902 c-15 -16 -40 -37 -55 -47 -15 -10 -25 -20 -22 -23 2 -3
-5 -21 -16 -41 l-21 -36 28 30 c15 17 30 29 34 28 3 -1 28 21 56 49 38 39 42
47 19 33 l-30 -19 24 27 c33 36 16 35 -17 -1z"/>
<path d="M4545 3658 c-10 -24 -19 -54 -21 -66 -2 -23 -2 -23 18 -6 13 13 18
27 15 44 -3 13 -1 33 5 43 5 10 8 21 5 23 -2 3 -12 -14 -22 -38z m-3 -60 c-8
-8 -9 -4 -5 13 4 13 8 18 11 10 2 -7 -1 -18 -6 -23z"/>
<path d="M4589 3603 c-1 -4 0 -18 1 -30 1 -15 -4 -23 -13 -23 -10 0 -13 -7
-10 -20 3 -12 0 -20 -6 -20 -7 0 -9 5 -5 11 9 15 -52 -20 -80 -47 -13 -11 -28
-18 -33 -17 -6 2 -14 -1 -18 -6 -4 -7 1 -8 12 -4 17 6 17 5 -1 -15 -20 -24
-42 -30 -30 -9 4 6 -14 -6 -42 -27 -62 -50 -77 -64 -41 -43 40 25 33 14 -14
-24 l-40 -32 15 38 c21 48 20 55 -1 25 -20 -28 -22 -117 -4 -160 9 -23 10 -22
10 17 1 23 4 50 7 60 5 15 4 15 -5 3 -6 -8 -11 -10 -11 -5 0 6 27 30 60 54 33
24 60 48 60 53 0 5 6 6 13 2 6 -4 9 -4 5 1 -8 9 44 55 63 55 20 0 94 46 95 59
1 6 2 16 3 22 0 5 5 8 9 5 5 -3 9 0 9 7 0 7 4 24 8 38 4 16 2 30 -4 33 -6 4
-11 4 -12 -1z m-29 -104 c12 -8 10 -9 -9 -4 -15 5 -21 3 -17 -3 3 -5 -5 -17
-19 -26 -30 -20 -47 -21 -21 -1 11 8 16 15 11 15 -9 0 26 29 35 30 3 0 12 -5
20 -11z m-175 -109 c-10 -11 -23 -20 -29 -20 -6 0 0 9 14 20 32 25 38 25 15 0z"/>
<path d="M3980 3284 c0 -6 7 -19 15 -30 8 -10 14 -14 14 -9 0 6 -6 19 -14 29
-8 11 -15 15 -15 10z"/>
<path d="M4173 3278 l-22 -11 20 -38 c11 -22 22 -39 25 -39 2 0 0 9 -6 21 -7
11 -9 27 -6 35 3 9 1 12 -4 9 -17 -11 -11 7 8 21 20 16 15 17 -15 2z"/>
<path d="M3970 3255 c0 -6 4 -17 10 -25 5 -9 5 -19 -2 -27 -7 -9 -7 -13 1 -13
7 0 9 -4 6 -10 -3 -5 2 -10 11 -10 10 0 14 -3 11 -7 -12 -11 -58 20 -52 34 2
8 0 11 -5 8 -6 -3 -10 -1 -10 6 0 7 -3 10 -6 6 -7 -7 26 -66 38 -68 4 -1 12
-2 17 -3 5 0 13 -5 18 -10 5 -5 3 -6 -4 -2 -7 4 -13 3 -13 -2 0 -15 28 -22 33
-9 5 17 -14 77 -25 77 -5 0 -6 4 -3 10 3 5 -1 20 -9 32 -9 12 -16 18 -16 13z"/>
<path d="M4291 3154 c0 -11 3 -14 6 -6 3 7 2 16 -1 19 -3 4 -6 -2 -5 -13z"/>
<path d="M4301 3100 c0 -14 28 -72 29 -59 0 4 -7 22 -15 40 -8 19 -14 27 -14
19z"/>
<path d="M4340 3006 c0 -5 20 -41 44 -80 24 -39 56 -95 71 -124 14 -30 28 -52
31 -50 5 5 -67 138 -114 213 -17 28 -32 46 -32 41z"/>
<path d="M2140 2890 c-8 -5 -10 -10 -5 -10 6 0 17 5 25 10 8 5 11 10 5 10 -5
0 -17 -5 -25 -10z"/>
<path d="M1975 2829 c-4 -5 -4 -13 -1 -16 3 -4 6 0 6 8 0 11 2 11 10 -1 6 -9
10 -10 10 -3 0 17 -17 25 -25 12z"/>
<path d="M2283 2812 c15 -19 30 -44 33 -58 3 -13 10 -24 15 -24 14 0 -26 72
-52 95 -19 17 -19 14 4 -13z"/>
<path d="M4492 2733 c25 -52 43 -83 49 -83 4 0 -4 20 -18 45 -13 25 -27 45
-30 45 -2 0 -3 -3 -1 -7z"/>
<path d="M2341 2690 c0 -8 4 -24 9 -35 5 -13 9 -14 9 -5 0 8 -4 24 -9 35 -5
13 -9 14 -9 5z"/>
<path d="M3641 2645 c0 -5 7 -26 14 -45 9 -23 14 -28 14 -15 0 11 -6 31 -14
45 -8 14 -14 21 -14 15z"/>
<path d="M4021 2616 c11 -18 37 -85 58 -147 21 -63 49 -136 61 -164 45 -102
44 -98 48 -148 1 -10 6 -16 11 -13 5 4 5 22 1 43 -6 25 -5 40 2 44 6 4 3 9 -9
13 -14 5 -19 14 -17 37 2 23 -2 29 -12 25 -8 -3 -14 -1 -14 3 0 5 7 11 15 14
9 4 24 -12 46 -50 27 -47 30 -59 20 -75 -7 -12 -8 -17 -2 -13 6 3 11 -2 12
-12 0 -14 3 -12 10 6 8 21 0 41 -52 135 -61 111 -89 151 -89 129 0 -22 12 -43
22 -37 6 4 8 -2 3 -15 -4 -15 -2 -21 8 -21 8 0 18 -7 21 -16 8 -22 8 -26 -3
-20 -5 4 -12 0 -15 -6 -4 -7 -4 -3 -2 10 2 12 1 20 -4 17 -11 -7 -42 81 -36
102 3 10 1 25 -4 33 -9 13 -10 13 -10 0 -1 -18 -41 87 -43 112 -1 9 -4 15 -8
12 -4 -2 -10 5 -14 16 -3 11 -10 20 -15 20 -5 0 0 -15 11 -34z"/>
<path d="M3976 2625 c4 -8 10 -12 15 -9 11 6 2 24 -11 24 -5 0 -7 -7 -4 -15z"/>
<path d="M2361 2623 c-1 -6 -4 -20 -7 -30 -5 -15 -4 -16 6 -3 9 12 11 10 7
-13 -3 -20 -1 -25 6 -18 7 7 7 20 0 43 -6 18 -11 28 -12 21z"/>
<path d="M3670 2544 c0 -8 -4 -12 -10 -9 -6 4 -7 -1 -3 -11 4 -11 8 -13 11 -6
2 7 7 10 12 7 4 -3 6 4 3 15 -6 24 -13 26 -13 4z"/>
<path d="M2382 2525 c0 -16 2 -22 5 -12 2 9 2 23 0 30 -3 6 -5 -1 -5 -18z"/>
<path d="M3414 2490 c1 -19 7 -34 12 -32 10 4 7 28 -6 52 -6 10 -8 3 -6 -20z"/>
<path d="M4133 2498 c1 -14 5 -24 10 -21 4 2 7 -1 7 -8 0 -7 3 -10 6 -7 3 4
-1 19 -9 35 l-15 28 1 -27z"/>
<path d="M4706 2414 c82 -120 151 -211 165 -220 7 -4 -11 22 -38 57 -27 35
-78 106 -113 157 -34 51 -67 95 -72 98 -5 3 21 -38 58 -92z"/>
<path d="M2700 2496 c0 -4 7 -14 15 -22 8 -9 15 -11 15 -6 0 5 -7 15 -15 22
-8 7 -15 9 -15 6z"/>
<path d="M2390 2461 c0 -17 4 -32 8 -35 4 -2 6 11 4 30 -5 42 -12 45 -12 5z"/>
<path d="M3325 2471 c-3 -12 -11 -18 -17 -15 -7 4 -8 2 -4 -4 4 -7 1 -12 -6
-12 -21 0 -122 -106 -109 -114 6 -4 22 1 36 11 25 18 35 40 13 27 -9 -5 -9 -3
1 9 13 16 36 14 26 -3 -3 -5 0 -12 7 -16 7 -4 10 -3 5 1 -4 5 0 19 8 32 9 13
13 28 10 34 -4 5 -1 8 6 7 13 -3 45 49 36 59 -3 2 -8 -5 -12 -16z m-100 -121
c-3 -5 -11 -10 -16 -10 -6 0 -7 5 -4 10 3 6 11 10 16 10 6 0 7 -4 4 -10z"/>
<path d="M3660 2467 c0 -1 -4 -18 -10 -36 -5 -19 -6 -30 -1 -25 10 11 24 64
16 64 -3 0 -5 -1 -5 -3z"/>
<path d="M3403 2429 c9 -6 14 -16 11 -22 -4 -7 -3 -8 1 -4 17 15 12 33 -9 34
-19 2 -19 1 -3 -8z"/>
<path d="M4170 2415 c0 -5 5 -17 10 -25 5 -8 10 -10 10 -5 0 6 -5 17 -10 25
-5 8 -10 11 -10 5z"/>
<path d="M3831 2344 c0 -11 3 -14 6 -6 3 7 2 16 -1 19 -3 4 -6 -2 -5 -13z"/>
<path d="M3451 2334 c0 -11 3 -14 6 -6 3 7 2 16 -1 19 -3 4 -6 -2 -5 -13z"/>
<path d="M3605 2339 c-4 -6 -5 -12 -2 -15 2 -3 7 2 10 11 7 17 1 20 -8 4z"/>
<path d="M1737 2309 c7 -7 15 -10 18 -7 3 3 -2 9 -12 12 -14 6 -15 5 -6 -5z"/>
<path d="M3823 2275 c0 -27 2 -38 4 -22 2 15 2 37 0 50 -2 12 -4 0 -4 -28z"/>
<path d="M1790 2286 c0 -2 8 -10 18 -17 15 -13 16 -12 3 4 -13 16 -21 21 -21
13z"/>
<path d="M3900 2255 c-1 -11 -3 -27 -4 -35 -2 -8 -6 -57 -10 -108 -4 -51 -18
-148 -32 -215 -13 -66 -27 -151 -31 -189 -5 -61 -7 -66 -20 -50 -14 16 -14 16
-9 -1 3 -10 6 -23 6 -28 0 -6 4 -7 10 -4 5 3 7 0 4 -8 -3 -8 -1 -18 5 -22 6
-3 11 -16 11 -28 l1 -22 12 22 12 21 19 -26 c11 -14 14 -22 8 -18 -21 13 -13
-5 23 -49 20 -24 38 -54 40 -66 15 -78 14 -76 55 -75 l39 1 -22 25 c-12 14 -5
9 16 -10 37 -34 39 -34 53 -16 14 20 15 20 62 -3 l47 -22 -30 25 c-22 19 -24
24 -10 19 11 -3 28 -13 38 -21 16 -15 17 -13 14 29 -3 45 -21 89 -32 78 -3 -4
2 -14 11 -23 9 -9 15 -19 12 -21 -6 -7 -118 126 -118 141 0 8 4 22 9 32 6 9
17 41 26 70 9 28 20 50 24 47 5 -2 19 8 32 23 l24 27 -27 -24 c-43 -38 -33
-10 11 34 22 21 40 41 39 44 -2 21 4 28 22 24 15 -4 20 0 20 15 0 11 6 22 14
25 10 4 21 -12 37 -51 13 -31 81 -163 152 -292 172 -312 167 -303 167 -317 0
-19 -9 -16 -31 10 -17 19 -19 19 -10 2 13 -27 157 -175 170 -175 6 0 11 -5 11
-11 0 -5 -4 -8 -9 -4 -10 6 -41 -21 -41 -36 0 -6 6 -7 13 -3 6 4 8 3 4 -1 -22
-25 -58 -8 -140 64 -15 14 -34 26 -41 27 -20 3 -56 36 -49 47 3 5 -5 3 -18 -4
-21 -11 -22 -10 -11 3 14 17 -5 41 -68 89 -42 32 -36 49 6 18 l29 -21 -28 26
c-15 14 -24 26 -20 26 4 0 -1 7 -11 15 -11 8 -17 15 -13 15 4 0 3 9 -3 21 -7
11 -18 18 -25 15 -8 -3 -16 0 -19 7 -2 7 -5 5 -5 -5 -1 -9 4 -20 9 -23 6 -3
10 -1 10 4 0 6 5 11 10 11 6 0 10 -6 8 -12 -1 -7 3 -23 10 -35 18 -33 2 -28
-38 10 -19 19 -51 48 -70 65 -32 27 -36 28 -37 11 -1 -10 2 -21 8 -24 5 -4 9
-1 9 5 0 6 5 8 11 5 6 -5 4 -11 -6 -19 -15 -11 -14 -13 9 -26 14 -7 26 -17 26
-22 0 -5 -14 0 -30 12 -17 12 -28 26 -25 31 4 5 -1 6 -9 3 -9 -3 -16 -8 -16
-10 0 -2 39 -29 86 -60 56 -37 127 -99 203 -176 64 -66 128 -126 144 -134 15
-8 60 -45 99 -82 40 -37 63 -55 53 -41 -11 14 -37 40 -57 58 -57 50 -26 67 42
23 14 -9 31 -17 39 -18 19 -3 32 -18 35 -40 2 -12 16 -23 40 -29 20 -6 37 -14
37 -18 -1 -4 -1 -11 -1 -17 0 -5 -7 -7 -15 -4 -8 4 -15 1 -15 -6 0 -6 5 -8 10
-5 6 3 10 1 10 -4 0 -6 8 -11 18 -11 13 0 14 2 4 9 -11 7 -9 13 9 30 12 11 28
21 33 21 6 0 4 -4 -4 -10 -11 -7 -9 -11 13 -19 37 -14 38 -14 30 6 -5 12 -3
14 7 8 8 -5 35 -8 60 -6 52 3 52 -5 0 -11 -19 -3 -34 -7 -32 -11 1 -4 2 -11 2
-17 0 -5 9 -10 20 -10 11 0 20 -6 20 -14 0 -22 -36 -25 -69 -5 -36 22 -41 23
-41 8 0 -5 5 -7 10 -4 6 3 10 2 10 -3 0 -20 79 -35 155 -28 102 9 111 13 81
37 -13 11 -31 16 -40 13 -9 -3 -16 -1 -16 5 0 6 11 11 25 11 18 0 23 4 18 16
-3 9 -9 12 -12 7 -3 -4 -19 -9 -36 -10 -16 -2 -24 0 -17 3 28 13 8 20 -57 21
-38 0 -75 4 -81 8 -7 4 -16 1 -21 -6 -7 -11 -9 -11 -9 2 0 10 -11 20 -25 23
-14 4 -25 11 -25 17 0 7 6 6 17 -2 15 -12 16 -12 10 3 -3 9 -1 18 5 20 6 2 3
10 -6 17 -14 12 -16 12 -10 -4 5 -13 4 -16 -4 -11 -16 10 -15 31 2 45 10 9 15
8 19 -3 3 -8 16 -20 28 -27 l22 -11 -21 30 c-38 53 -30 60 46 36 15 -4 -7 22
-56 67 -76 70 -103 109 -66 95 11 -4 15 -2 11 8 -3 8 -1 16 5 18 7 3 5 14 -7
31 -20 32 -35 35 -30 7 4 -20 -20 -29 -27 -10 -5 15 -78 25 -78 11 0 -6 16
-28 35 -48 33 -35 43 -53 29 -53 -10 0 -54 37 -49 42 2 2 -4 9 -13 15 -13 8
-21 7 -30 -3 -11 -12 -10 -15 2 -20 9 -3 16 -11 16 -16 0 -6 -7 -7 -16 -4 -12
4 -15 2 -10 -9 4 -13 2 -14 -14 -5 -23 12 -26 26 -7 33 10 4 10 6 0 6 -7 1
-13 7 -13 15 0 20 -21 31 -30 16 -10 -16 -50 18 -43 37 4 9 0 11 -11 7 -9 -3
-16 -1 -16 5 0 6 8 11 18 11 14 0 15 2 2 10 -8 5 -11 12 -7 16 11 11 26 -7 30
-36 2 -14 7 -24 10 -22 4 1 7 4 7 7 0 3 0 10 0 15 0 6 -14 24 -30 42 -17 17
-29 37 -26 44 3 7 0 11 -7 9 -7 -3 -28 23 -48 58 -52 87 -71 127 -62 127 5 0
2 4 -6 9 -9 6 -10 11 -2 15 10 6 15 -6 12 -26 0 -5 4 -8 9 -8 15 0 12 15 -8
41 -10 13 -21 32 -25 42 -3 9 -13 17 -21 17 -9 0 -13 10 -12 29 1 17 -1 28 -5
25 -4 -2 -10 2 -13 8 -3 7 -3 2 0 -12 5 -24 4 -24 -10 -6 -18 22 -20 36 -8 36
5 0 9 6 9 13 0 8 -6 14 -13 14 -7 0 -10 -7 -7 -16 4 -14 3 -14 -5 -1 -8 10 -7
19 1 29 10 12 9 14 -5 8 -13 -4 -15 -2 -11 10 5 12 3 14 -7 8 -9 -5 -11 -4 -6
3 4 7 1 12 -6 12 -8 0 -6 5 5 11 9 5 17 17 17 25 0 19 -42 35 -53 20 -5 -6 -7
-2 -4 12 3 12 1 20 -4 16 -5 -3 -9 0 -9 6 0 6 7 13 15 16 8 4 15 11 15 17 0 5
-9 2 -19 -7 -18 -17 -20 -16 -26 3 -3 12 -3 26 1 33 4 7 4 10 -1 6 -4 -4 -14
-3 -21 3 -10 8 -11 16 -3 31 7 12 7 18 1 14 -5 -3 -12 1 -16 9 -3 8 -1 17 5
20 5 4 7 11 4 16 -4 5 0 9 7 9 8 0 6 5 -5 11 -9 6 -14 15 -11 21 5 7 2 8 -6 3
-10 -6 -12 -4 -7 9 4 9 3 15 -2 12 -9 -6 -35 73 -27 81 3 3 11 1 19 -5 10 -8
13 -6 14 11 1 12 -1 17 -5 12 -4 -6 -18 -10 -31 -10 -14 0 -26 -7 -28 -15 -4
-13 -3 -13 7 0 9 12 10 8 6 -20 -4 -23 -3 -28 2 -16 8 19 9 18 15 -5 10 -35 8
-46 -4 -29 -17 25 0 -29 27 -82 28 -55 29 -59 10 -52 -9 4 -20 -5 -29 -23 -8
-15 -24 -37 -36 -47 -12 -11 -21 -23 -21 -27 0 -5 -18 -32 -39 -61 -27 -35
-51 -87 -75 -157 -32 -97 -63 -171 -71 -171 -11 0 -85 113 -79 122 4 6 3 8 -3
5 -6 -4 -24 11 -42 33 -27 34 -31 46 -31 97 0 32 9 108 20 168 43 239 59 371
51 401 -7 21 -10 24 -11 9z m367 -277 c3 -22 2 -22 -12 2 -17 30 -19 48 -3 32
6 -6 13 -22 15 -34z m8 -88 c3 -5 -1 -10 -10 -10 -9 0 -13 5 -10 10 3 6 8 10
10 10 2 0 7 -4 10 -10z m-29 -47 c-10 -10 -19 5 -10 18 6 11 8 11 12 0 2 -7 1
-15 -2 -18z m144 -93 c0 -5 -7 -7 -15 -4 -8 4 -15 8 -15 10 0 2 7 4 15 4 8 0
15 -4 15 -10z m100 -215 c0 -8 -2 -15 -4 -15 -2 0 -6 7 -10 15 -3 8 -1 15 4
15 6 0 10 -7 10 -15z m-499 -147 c9 -17 8 -18 -10 -6 -11 6 -22 20 -25 31 -4
15 -2 16 10 6 8 -7 20 -21 25 -31z m368 -136 c43 -43 83 -76 89 -74 7 2 12 0
13 -5 0 -4 2 -17 4 -28 3 -14 -8 -7 -39 25 -23 25 -47 47 -52 49 -34 16 -83
58 -79 68 2 7 -3 19 -11 28 -9 8 -12 15 -9 15 4 0 42 -35 84 -78z m180 -195
c-2 -2 -17 12 -33 32 l-30 36 34 -32 c19 -18 32 -34 29 -36z m61 -16 c12 -12
10 -11 -9 0 -14 9 -27 22 -29 30 -3 11 -2 11 9 -1 8 -8 21 -21 29 -29z m213
20 c2 -10 1 -24 -3 -30 -4 -7 -7 1 -8 18 -1 35 3 40 11 12z m53 -68 c-11 -11
-19 6 -11 24 8 17 8 17 12 0 3 -10 2 -21 -1 -24z m-235 -20 c13 -16 12 -17 -3
-4 -10 7 -18 15 -18 17 0 8 8 3 21 -13z m105 -7 c14 4 15 3 6 -4 -11 -7 -9
-10 8 -15 16 -4 20 -2 16 8 -3 9 0 12 10 8 11 -4 12 -9 3 -19 -7 -9 -8 -14 -1
-14 5 0 13 -8 16 -17 6 -14 3 -14 -16 3 -29 26 -68 37 -85 22 -9 -7 -13 -7
-13 1 0 6 5 11 11 11 5 0 7 5 4 10 -4 6 -13 7 -24 1 -13 -7 -18 -6 -18 4 0 7
7 11 15 7 11 -4 13 -1 7 7 -4 8 2 7 17 -3 14 -9 34 -14 44 -10z m167 -6 c3
-11 1 -18 -4 -14 -5 3 -9 12 -9 20 0 20 7 17 13 -6z m-23 -105 c0 -8 -8 -15
-17 -14 -13 0 -14 2 -4 6 11 5 11 7 0 14 -11 7 -10 9 4 9 9 0 17 -7 17 -15z
m260 -70 c0 -8 -7 -15 -15 -15 -13 0 -14 3 -3 15 16 18 18 18 18 0z m-50 -9
c0 -3 -4 -8 -10 -11 -5 -3 -10 -1 -10 4 0 6 5 11 10 11 6 0 10 -2 10 -4z m84
-22 c5 -13 0 -16 -28 -12 -19 2 -32 0 -29 -5 3 -5 29 -6 58 -2 37 4 55 3 61
-6 5 -8 2 -11 -7 -7 -8 3 -40 2 -71 -1 -53 -6 -57 -6 -61 16 -3 19 1 22 32 26
20 2 37 4 37 5 1 1 5 -5 8 -14z"/>
<path d="M4300 1287 c0 -2 19 -19 43 -37 23 -19 36 -26 28 -17 -15 19 -71 61
-71 54z"/>
<path d="M1830 2252 c0 -8 -5 -10 -12 -6 -7 4 -4 -2 6 -14 20 -23 32 -30 21
-12 -3 6 -2 10 4 10 5 0 27 -21 47 -47 51 -65 59 -72 45 -45 -17 32 -111 129
-111 114z"/>
<path d="M3335 2210 c-4 -17 -5 -34 -2 -36 2 -3 7 10 11 27 8 42 0 50 -9 9z"/>
<path d="M3188 2223 c12 -2 30 -2 40 0 9 3 -1 5 -23 4 -22 0 -30 -2 -17 -4z"/>
<path d="M1196 2202 c-3 -5 1 -9 9 -9 8 0 12 4 9 9 -3 4 -7 8 -9 8 -2 0 -6 -4
-9 -8z"/>
<path d="M2423 2175 c0 -22 2 -30 4 -17 2 12 2 30 0 40 -3 9 -5 -1 -4 -23z"/>
<path d="M3068 2203 c6 -2 18 -2 25 0 6 3 1 5 -13 5 -14 0 -19 -2 -12 -5z"/>
<path d="M3813 2150 c0 -36 2 -50 4 -32 2 17 2 47 0 65 -2 17 -4 3 -4 -33z"/>
<path d="M2988 2193 c12 -2 32 -2 45 0 12 2 2 4 -23 4 -25 0 -35 -2 -22 -4z"/>
<path d="M1140 2164 c0 -8 -4 -13 -9 -10 -5 3 -11 0 -14 -8 -4 -10 0 -12 14
-9 10 3 19 12 19 20 0 8 5 11 12 7 7 -4 8 -3 4 4 -10 17 -26 15 -26 -4z"/>
<path d="M3431 2166 c-1 -16 -3 -17 -18 -5 -10 7 -15 9 -11 5 4 -5 2 -16 -5
-25 -11 -14 -10 -14 6 -2 15 12 17 11 17 -2 0 -8 -6 -18 -12 -20 -10 -4 -10
-6 0 -6 14 -1 35 46 28 63 -2 6 -5 3 -5 -8z"/>
<path d="M3921 2164 c0 -11 3 -14 6 -6 3 7 2 16 -1 19 -3 4 -6 -2 -5 -13z"/>
<path d="M4261 2164 c0 -11 3 -14 6 -6 3 7 2 16 -1 19 -3 4 -6 -2 -5 -13z"/>
<path d="M1175 2149 c-4 -6 -5 -12 -2 -15 2 -3 7 2 10 11 7 17 1 20 -8 4z"/>
<path d="M4960 2074 c50 -71 60 -92 38 -78 -14 9 68 -146 86 -161 6 -6 12 -17
14 -25 2 -8 13 -31 25 -50 13 -19 31 -54 41 -78 33 -75 27 -39 -9 53 -38 97
-43 119 -19 89 15 -18 15 -18 5 3 -9 17 -17 21 -38 17 -23 -4 -26 -3 -15 7 6
7 12 19 12 27 0 15 -112 179 -160 232 -17 19 -8 3 20 -36z m99 -143 c30 -43
42 -79 21 -66 -9 6 -57 90 -69 120 -6 16 13 -6 48 -54z m71 -155 c0 -12 -5 -7
-19 24 -11 24 -11 24 3 6 9 -11 16 -24 16 -30z"/>
<path d="M1107 2106 c-4 -11 -5 -21 -2 -24 3 -3 5 0 5 7 0 7 4 10 9 6 5 -3 13
0 17 6 4 7 3 9 -4 5 -5 -3 -12 -1 -14 6 -3 7 -7 5 -11 -6z"/>
<path d="M1150 2090 c-6 -11 -15 -18 -20 -15 -5 3 -12 0 -16 -6 -4 -7 -3 -9 3
-6 6 4 13 1 16 -7 6 -14 -9 -16 -29 -4 -7 5 -17 -15 -28 -55 -20 -71 -57 -167
-97 -249 -15 -32 -30 -81 -33 -110 -3 -29 -3 -45 0 -35 3 9 9 17 12 17 4 0 7
15 6 33 0 17 3 37 6 42 4 6 20 42 35 82 25 66 45 86 45 47 0 -8 -4 -12 -10 -9
-5 3 -10 1 -10 -5 0 -7 6 -10 13 -7 7 3 13 -3 14 -12 1 -9 3 -21 5 -26 2 -6
-2 -10 -7 -10 -5 0 -9 7 -8 17 1 9 -4 19 -12 21 -15 6 -39 -50 -49 -113 -1 -9
-5 -21 -10 -28 -10 -17 -2 -15 22 7 12 10 24 34 27 52 3 19 3 28 -1 22 -3 -7
-10 -13 -15 -13 -5 0 -3 14 6 30 16 31 29 41 19 16 -3 -8 -1 -17 5 -20 5 -4 7
-19 5 -33 -6 -32 -1 -29 20 11 10 21 12 36 5 53 -8 21 -7 24 6 19 11 -4 15 1
15 17 0 13 5 28 11 34 8 8 8 13 0 18 -7 4 -10 1 -9 -7 4 -17 -44 -17 -50 0 -2
8 2 10 13 6 22 -9 35 12 34 56 0 32 -1 33 -10 12 -5 -13 -6 -29 -3 -35 5 -9 4
-9 -6 0 -17 15 23 140 45 140 10 0 14 -7 10 -21 -3 -12 4 -4 14 18 10 21 21
32 23 25 3 -9 6 -8 11 5 4 11 3 15 -4 10 -8 -4 -9 1 -4 15 8 27 -1 27 -15 1z
m-80 -211 c0 -5 -4 -9 -10 -9 -5 0 -10 7 -10 16 0 8 5 12 10 9 6 -3 10 -10 10
-16z m10 -59 c0 -5 -4 -10 -10 -10 -5 0 -10 5 -10 10 0 6 5 10 10 10 6 0 10
-4 10 -10z m-74 -136 c-4 -9 -9 -15 -11 -12 -3 3 -3 13 1 22 4 9 9 15 11 12 3
-3 3 -13 -1 -22z"/>
<path d="M1936 2098 c3 -5 10 -6 15 -3 13 9 11 12 -6 12 -8 0 -12 -4 -9 -9z"/>
<path d="M3401 2093 c4 -23 -2 -54 -9 -49 -4 2 -8 -4 -8 -15 0 -28 13 -23 20
9 4 15 9 35 12 45 3 9 1 17 -5 17 -6 0 -10 -3 -10 -7z"/>
<path d="M1971 2073 c7 -12 15 -20 18 -17 3 2 -3 12 -13 22 -17 16 -18 16 -5
-5z"/>
<path d="M3301 2074 c0 -11 3 -14 6 -6 3 7 2 16 -1 19 -3 4 -6 -2 -5 -13z"/>
<path d="M4280 2055 c0 -8 4 -15 10 -15 5 0 7 7 4 15 -4 8 -8 15 -10 15 -2 0
-4 -7 -4 -15z"/>
<path d="M1160 2030 c-9 -6 -10 -10 -3 -10 6 0 15 5 18 10 8 12 4 12 -15 0z"/>
<path d="M3802 2005 c0 -16 2 -22 5 -12 2 9 2 23 0 30 -3 6 -5 -1 -5 -18z"/>
<path d="M3353 2005 c0 -8 4 -12 9 -9 5 3 6 10 3 15 -9 13 -12 11 -12 -6z"/>
<path d="M1725 1999 c-4 -6 -5 -12 -2 -15 2 -3 7 2 10 11 7 17 1 20 -8 4z"/>
<path d="M3852 1985 c0 -16 2 -22 5 -12 2 9 2 23 0 30 -3 6 -5 -1 -5 -18z"/>
<path d="M1146 1987 c3 -10 9 -15 12 -12 3 3 0 11 -7 18 -10 9 -11 8 -5 -6z"/>
<path d="M3380 1986 c0 -9 -4 -14 -10 -11 -12 8 -13 -5 -1 -23 6 -10 10 -7 15
13 4 15 5 30 1 33 -3 3 -5 -2 -5 -12z"/>
<path d="M1766 1977 c3 -10 9 -15 12 -12 3 3 0 11 -7 18 -10 9 -11 8 -5 -6z"/>
<path d="M1090 1975 c0 -5 5 -17 10 -25 5 -8 10 -10 10 -5 0 6 -5 17 -10 25
-5 8 -10 11 -10 5z"/>
<path d="M1124 1959 c-3 -6 -2 -15 4 -21 6 -6 12 -6 17 3 6 8 4 10 -5 4 -10
-6 -12 -4 -7 8 7 19 2 23 -9 6z"/>
<path d="M2026 1957 c3 -10 9 -15 12 -12 3 3 0 11 -7 18 -10 9 -11 8 -5 -6z"/>
<path d="M4296 1952 c-3 -5 1 -9 9 -9 8 0 12 4 9 9 -3 4 -7 8 -9 8 -2 0 -6 -4
-9 -8z"/>
<path d="M2040 1921 c0 -6 4 -13 10 -16 6 -3 7 1 4 9 -7 18 -14 21 -14 7z"/>
<path d="M1827 1911 c6 -7 9 -21 6 -30 -4 -12 -3 -13 5 -3 7 11 14 7 30 -16
12 -16 18 -33 14 -37 -4 -5 -1 -5 6 -1 14 9 -9 47 -49 81 -13 11 -19 13 -12 6z"/>
<path d="M4313 1905 c0 -8 4 -12 9 -9 5 3 6 10 3 15 -9 13 -12 11 -12 -6z"/>
<path d="M1100 1891 c0 -6 4 -13 10 -16 6 -3 7 1 4 9 -7 18 -14 21 -14 7z"/>
<path d="M3203 1888 c-6 -7 -21 -44 -33 -83 -13 -38 -29 -83 -37 -98 -18 -36
-25 -69 -12 -62 5 4 9 12 9 20 0 25 23 65 33 58 6 -4 7 -1 3 6 -7 11 22 111
45 154 11 20 6 23 -8 5z"/>
<path d="M3342 1875 c-17 -37 -14 -45 4 -12 9 16 14 31 11 33 -2 2 -9 -7 -15
-21z"/>
<path d="M410 1884 c0 -3 7 -20 15 -37 29 -63 46 -155 56 -302 5 -82 12 -157
14 -165 6 -20 -4 210 -11 276 -4 35 -2 55 8 65 7 8 19 26 27 41 8 15 17 26 20
25 3 -1 7 2 8 7 4 22 28 22 71 -1 25 -14 51 -32 58 -41 7 -9 16 -14 20 -9 4 4
2 7 -4 7 -7 0 -12 6 -12 14 0 7 -15 19 -32 26 -18 7 -49 29 -69 48 -28 25 -42
32 -58 27 -24 -7 -28 -22 -6 -22 8 0 12 4 9 9 -3 4 3 8 12 8 14 0 12 -6 -11
-30 -15 -16 -32 -27 -36 -24 -4 2 -11 -1 -15 -7 -4 -8 -3 -9 4 -5 17 10 15 -3
-3 -20 -12 -12 -15 -12 -15 -2 0 7 -3 24 -6 38 -4 20 -3 22 5 10 16 -22 13 -8
-4 27 -14 27 -45 53 -45 37z m33 -34 c3 -11 1 -18 -4 -14 -5 3 -9 12 -9 20 0
20 7 17 13 -6z"/>
<path d="M2054 1869 c0 -10 4 -19 8 -19 4 0 8 6 8 14 0 8 -4 17 -8 20 -4 2 -8
-4 -8 -15z"/>
<path d="M289 1833 l-34 -38 38 34 c20 19 37 36 37 38 0 8 -8 0 -41 -34z"/>
<path d="M3311 1854 c0 -11 3 -14 6 -6 3 7 2 16 -1 19 -3 4 -6 -2 -5 -13z"/>
<path d="M29 1823 l-24 -28 28 24 c15 14 27 26 27 28 0 8 -8 1 -31 -24z"/>
<path d="M4260 1811 c0 -5 5 -13 10 -16 6 -3 10 -2 10 4 0 5 -4 13 -10 16 -5
3 -10 2 -10 -4z"/>
<path d="M1927 1763 c4 -9 0 -11 -11 -7 -9 3 -16 4 -16 1 0 -15 31 -14 39 2 7
13 6 18 -4 18 -7 0 -11 -6 -8 -14z"/>
<path d="M1950 1750 c0 -5 5 -10 11 -10 5 0 7 5 4 10 -3 6 -8 10 -11 10 -2 0
-4 -4 -4 -10z"/>
<path d="M692 1710 c0 -14 2 -19 5 -12 2 6 2 18 0 25 -3 6 -5 1 -5 -13z"/>
<path d="M1915 1723 c11 -3 26 -10 34 -17 12 -9 13 -8 6 4 -8 13 -7 13 9 1 16
-14 46 -62 46 -76 0 -3 -5 -3 -12 1 -7 4 -8 3 -4 -5 6 -9 11 -9 22 0 12 10 12
14 2 20 -10 7 -8 9 5 9 16 0 15 4 -9 35 -24 32 -31 35 -73 34 -25 -1 -37 -4
-26 -6z m95 -38 c7 -9 8 -15 2 -15 -5 0 -12 7 -16 15 -3 8 -4 15 -2 15 2 0 9
-7 16 -15z"/>
<path d="M2080 1720 c-13 -9 -13 -10 0 -11 8 -1 19 -1 23 0 5 1 7 -16 5 -36
-3 -34 -6 -38 -28 -36 -22 2 -23 1 -7 -8 35 -21 61 33 41 85 -7 18 -13 19 -34
6z"/>
<path d="M4406 1715 c4 -8 8 -15 10 -15 2 0 4 7 4 15 0 8 -4 15 -10 15 -5 0
-7 -7 -4 -15z"/>
<path d="M4430 1701 c0 -6 4 -13 10 -16 6 -3 7 1 4 9 -7 18 -14 21 -14 7z"/>
<path d="M1946 1682 c-2 -4 2 -18 10 -32 l15 -25 -7 25 c-6 23 -6 24 11 10 17
-14 17 -14 4 8 -14 23 -24 27 -33 14z"/>
<path d="M2070 1686 c0 -2 7 -7 16 -10 8 -3 12 -2 9 4 -6 10 -25 14 -25 6z"/>
<path d="M2052 1675 c4 -4 3 -14 -4 -22 -6 -7 -9 -15 -7 -18 3 -2 10 4 17 15
9 15 9 21 -1 26 -6 4 -9 4 -5 -1z"/>
<path d="M676 1655 c4 -8 11 -15 16 -15 6 0 5 6 -2 15 -7 8 -14 15 -16 15 -2
0 -1 -7 2 -15z"/>
<path d="M3851 1654 c0 -11 3 -14 6 -6 3 7 2 16 -1 19 -3 4 -6 -2 -5 -13z"/>
<path d="M4138 1660 c-9 -6 -19 -24 -23 -40 -4 -16 -11 -32 -16 -35 -19 -12
-8 -44 30 -85 31 -34 39 -39 45 -25 9 25 6 43 -4 20 -6 -13 -9 -15 -9 -5 0 8
4 22 9 30 7 11 10 11 10 2 0 -7 5 -10 10 -7 6 4 8 12 4 18 -3 7 9 -3 26 -22
25 -26 29 -35 19 -42 -15 -9 -7 -12 33 -12 10 0 15 -3 13 -7 -3 -4 2 -13 10
-20 8 -7 15 -19 15 -26 0 -8 5 -14 10 -14 15 0 -26 76 -45 83 -8 4 -15 12 -15
18 0 8 5 7 18 -2 15 -11 15 -11 4 1 -7 8 -17 16 -22 16 -23 3 -24 5 -14 12 7
5 4 14 -10 27 -12 11 -18 16 -13 11 16 -21 5 -29 -12 -9 -10 12 -22 19 -27 15
-5 -4 -3 0 3 8 8 10 9 21 3 30 -7 10 -10 11 -10 3 0 -7 -4 -13 -8 -13 -5 0 -7
14 -4 30 3 19 0 30 -7 30 -7 0 -9 5 -6 10 8 12 5 12 -17 0z m15 -35 c-3 -9 -8
-14 -10 -11 -3 3 -2 9 2 15 9 16 15 13 8 -4z m-23 -63 c-8 -3 -18 -10 -22 -16
-4 -6 -6 -1 -6 10 2 16 7 20 22 16 15 -4 17 -7 6 -10z m43 -2 c3 -11 1 -18 -4
-14 -5 3 -9 12 -9 20 0 20 7 17 13 -6z m-37 -35 c1 -8 -2 -13 -7 -9 -5 3 -9
12 -9 21 0 19 13 9 16 -12z"/>
<path d="M2171 1644 c0 -11 3 -14 6 -6 3 7 2 16 -1 19 -3 4 -6 -2 -5 -13z"/>
<path d="M651 1642 c-1 -7 5 -23 11 -35 7 -12 13 -40 13 -62 1 -22 2 -62 4
-90 l4 -50 6 45 c3 25 3 48 -1 51 -5 3 -6 31 -3 63 3 37 1 55 -5 51 -6 -4 -14
4 -19 17 -6 13 -10 17 -10 10z"/>
<path d="M1430 1626 c0 -11 40 -86 45 -86 3 0 -4 19 -16 43 -23 45 -29 54 -29
43z"/>
<path d="M3094 1619 c-3 -6 -2 -15 3 -20 5 -5 9 -1 10 11 2 22 -2 25 -13 9z"/>
<path d="M1152 1600 c0 -14 2 -19 5 -12 2 6 2 18 0 25 -3 6 -5 1 -5 -13z"/>
<path d="M1981 1610 c0 -15 38 -91 39 -79 0 4 -9 26 -20 50 -11 24 -19 37 -19
29z"/>
<path d="M2030 1616 c0 -3 5 -17 11 -33 20 -51 28 -83 19 -83 -4 0 -11 12 -14
26 -4 15 -9 24 -13 21 -3 -3 2 -20 11 -38 18 -37 20 -42 7 -34 -5 3 -13 1 -16
-5 -4 -6 -3 -10 2 -9 27 5 35 -1 23 -16 -10 -12 -10 -15 0 -15 8 0 10 -13 7
-42 -3 -25 0 -49 6 -57 9 -12 9 -13 0 -7 -7 4 -13 3 -13 -3 0 -5 6 -12 13 -15
6 -3 -1 -4 -18 -2 -27 4 -28 3 -11 -10 10 -7 24 -10 30 -7 6 4 5 0 -2 -9 -7
-9 -9 -19 -5 -21 5 -3 6 -34 3 -70 -3 -42 -2 -63 5 -61 5 2 9 24 8 49 -1 25 2
45 6 45 5 0 6 12 3 26 -3 16 1 30 9 35 9 6 10 9 2 9 -7 0 -10 9 -7 23 6 31 17
157 15 185 0 13 -5 31 -10 40 -7 13 -9 7 -7 -20 2 -21 -1 -35 -6 -32 -5 3 -7
12 -4 20 3 8 1 14 -4 14 -5 0 -7 9 -5 20 2 11 0 20 -5 20 -4 0 -13 14 -19 30
-8 25 -21 40 -21 26z m63 -161 c4 -8 3 -16 -1 -19 -4 -3 -9 4 -9 15 -2 23 3
25 10 4z"/>
<path d="M2000 1606 c0 -2 7 -9 15 -16 13 -11 14 -10 9 4 -5 14 -24 23 -24 12z"/>
<path d="M2656 1577 c3 -10 9 -15 12 -12 3 3 0 11 -7 18 -10 9 -11 8 -5 -6z"/>
<path d="M3080 1581 c0 -6 4 -13 10 -16 6 -3 7 1 4 9 -7 18 -14 21 -14 7z"/>
<path d="M5373 1583 c9 -2 25 -2 35 0 9 3 1 5 -18 5 -19 0 -27 -2 -17 -5z"/>
<path d="M5563 1573 c59 -2 155 -2 215 0 59 1 10 3 -108 3 -118 0 -167 -2
-107 -3z"/>
<path d="M912 1413 c-25 -178 -26 -197 -12 -188 12 8 12 -13 -1 -40 -9 -19 -9
-18 -5 3 2 12 0 22 -4 22 -5 0 -12 -26 -15 -57 -4 -32 -16 -110 -26 -173 -11
-63 -17 -128 -14 -145 5 -23 4 -26 -4 -15 -9 12 -11 9 -11 -15 0 -23 3 -27 10
-15 8 13 10 13 10 -2 0 -18 53 -34 87 -25 10 3 0 5 -22 6 -31 1 -37 4 -25 12
12 8 10 9 -7 4 -19 -5 -23 -2 -23 17 0 17 2 20 9 9 7 -11 10 -9 14 10 4 23 4
23 6 2 1 -17 7 -23 24 -23 18 0 19 -2 7 -11 -13 -9 -13 -10 0 -6 8 2 20 14 27
27 10 20 8 31 -13 71 -28 56 -30 76 -8 100 12 13 13 22 5 38 -7 13 -8 22 -1
26 5 3 10 12 10 18 0 7 -5 4 -11 -6 -6 -9 -14 -15 -19 -12 -5 3 -11 1 -15 -5
-3 -5 2 -10 12 -10 15 0 16 -2 3 -10 -14 -9 -7 -15 14 -11 5 1 3 -6 -4 -16
-22 -28 -24 -29 -17 -11 3 10 2 20 -2 23 -13 7 -23 -26 -12 -39 5 -6 11 -25
13 -41 2 -17 8 -34 13 -38 6 -5 4 -7 -5 -4 -8 2 -14 10 -12 16 1 6 -5 11 -14
11 -8 0 -12 -4 -9 -10 3 -5 1 -10 -5 -10 -6 0 -8 -5 -5 -10 4 -6 10 -8 15 -5
5 3 11 1 14 -4 4 -5 -2 -8 -11 -7 -10 2 -22 -2 -26 -8 -5 -6 -6 4 -3 23 3 18
6 40 6 47 0 8 4 13 9 12 12 -4 14 3 6 24 -4 9 -2 25 3 35 6 10 8 31 5 46 -6
29 5 35 25 15 9 -9 12 -9 12 0 0 6 -8 16 -17 21 -10 6 -12 11 -5 11 7 0 12 12
11 28 l-1 27 -8 -25 c-7 -21 -8 -21 -9 -5 0 11 4 27 9 35 6 10 10 11 10 3 0
-7 5 -13 10 -13 6 0 8 11 6 25 -5 26 9 44 17 23 4 -9 6 -7 6 3 1 9 -6 22 -14
29 -20 17 -20 114 1 171 8 24 13 56 10 72 -3 15 -1 27 4 27 6 0 9 18 8 40 -2
22 -6 40 -9 40 -3 0 -15 -71 -27 -157z m14 -585 c3 -26 2 -29 -5 -13 -5 11
-10 14 -10 8 -1 -7 -5 -13 -10 -13 -6 0 -6 12 1 31 12 36 18 33 24 -13z"/>
<path d="M3849 1554 c-1 -10 -1 -22 -1 -25 1 -3 3 -86 6 -185 3 -98 9 -240 15
-314 6 -74 10 -175 8 -223 -1 -49 1 -91 6 -94 10 -6 9 183 -3 329 -5 68 -11
212 -13 320 -2 109 -7 201 -10 205 -4 3 -8 -2 -8 -13z"/>
<path d="M6043 1563 c15 -2 39 -2 55 0 15 2 2 4 -28 4 -30 0 -43 -2 -27 -4z"/>
<path d="M3077 1539 c4 -13 8 -18 11 -10 2 7 -1 18 -6 23 -8 8 -9 4 -5 -13z"/>
<path d="M3766 1493 c-7 -78 -12 -109 -21 -123 -3 -6 -1 -10 5 -10 7 0 10 -7
7 -15 -4 -8 -3 -17 2 -19 4 -3 8 11 8 32 0 20 4 74 8 120 4 45 6 82 3 82 -3 0
-8 -30 -12 -67z"/>
<path d="M2670 1548 c0 -2 7 -49 15 -104 8 -54 17 -119 20 -144 35 -283 37
-291 52 -276 4 3 2 29 -3 56 -6 27 -7 47 -3 44 4 -2 10 5 14 16 4 11 11 18 16
15 13 -8 11 7 -5 45 -10 25 -14 29 -20 15 -9 -24 -8 -27 6 -19 7 4 8 3 4 -4
-7 -11 -39 -5 -32 7 8 13 -48 337 -60 350 -2 2 -4 2 -4 -1z"/>
<path d="M5558 1543 c7 -3 16 -2 19 1 4 3 -2 6 -13 5 -11 0 -14 -3 -6 -6z"/>
<path d="M1152 1520 c0 -14 2 -19 5 -12 2 6 2 18 0 25 -3 6 -5 1 -5 -13z"/>
<path d="M5825 1530 c27 -12 43 -12 25 0 -8 5 -22 9 -30 9 -10 0 -8 -3 5 -9z"/>
<path d="M1480 1524 c0 -6 7 -19 16 -30 14 -18 14 -18 3 6 -14 31 -19 36 -19
24z"/>
<path d="M5583 1523 c20 -2 54 -2 75 0 20 2 3 4 -38 4 -41 0 -58 -2 -37 -4z"/>
<path d="M3060 1501 c0 -5 5 -13 10 -16 6 -3 10 -2 10 4 0 5 -4 13 -10 16 -5
3 -10 2 -10 -4z"/>
<path d="M4197 1503 c-4 -3 -7 -13 -7 -21 0 -18 13 -7 16 13 2 17 1 18 -9 8z"/>
<path d="M3833 1450 c0 -25 2 -35 4 -22 2 12 2 32 0 45 -2 12 -4 2 -4 -23z"/>
<path d="M4208 1464 c-4 -5 16 -34 43 -63 37 -38 54 -49 63 -42 9 7 16 7 25
-2 10 -9 11 -8 6 6 -8 18 -31 23 -37 8 -1 -5 -12 -3 -22 5 -17 12 -18 14 -3
14 9 0 17 3 17 8 0 16 -32 52 -41 46 -5 -3 1 -14 13 -25 21 -17 21 -18 3 -12
-30 9 -46 24 -38 36 3 5 1 7 -5 3 -6 -3 -12 2 -14 11 -2 11 -6 14 -10 7z"/>
<path d="M702 1430 c0 -14 2 -19 5 -12 2 6 2 18 0 25 -3 6 -5 1 -5 -13z"/>
<path d="M1506 1438 c3 -4 9 -8 15 -8 5 0 9 4 9 8 0 5 -7 9 -15 9 -8 0 -12 -4
-9 -9z"/>
<path d="M4560 1426 c0 -2 8 -10 18 -17 15 -13 16 -12 3 4 -13 16 -21 21 -21
13z"/>
<path d="M2043 1375 c0 -27 2 -38 4 -22 2 15 2 37 0 50 -2 12 -4 0 -4 -28z"/>
<path d="M706 1375 c4 -18 2 -30 -7 -36 -10 -6 -11 -9 -1 -9 6 0 12 -8 12 -18
0 -9 13 -33 29 -52 15 -19 31 -45 35 -57 7 -23 44 -39 68 -30 7 3 0 6 -15 6
-22 1 -31 8 -43 36 -8 19 -19 35 -24 35 -5 0 -12 11 -16 25 -3 14 -10 22 -15
19 -5 -3 -9 17 -9 45 0 27 -5 53 -10 56 -7 4 -8 -3 -4 -20z"/>
<path d="M1173 1384 c0 -7 5 -10 10 -7 5 3 7 0 5 -8 -3 -8 3 -25 13 -38 18
-23 17 -47 -2 -36 -5 3 -6 -1 -3 -10 4 -8 14 -14 23 -13 10 2 17 -5 19 -19 2
-13 7 -23 11 -23 4 0 17 -9 28 -20 17 -16 22 -17 27 -5 3 8 2 14 -2 14 -20 -3
-32 2 -32 15 0 7 -11 25 -25 39 -18 18 -22 27 -13 30 10 4 10 6 1 6 -7 1 -13
5 -13 11 0 5 8 6 17 3 14 -5 13 -3 -3 15 -33 36 -43 50 -38 54 2 3 -2 5 -9 5
-8 0 -14 -6 -14 -13z m38 -41 c13 -16 12 -17 -3 -4 -10 7 -18 15 -18 17 0 8 8
3 21 -13z"/>
<path d="M1531 1377 c-13 -21 -12 -21 5 -5 10 10 16 20 13 22 -3 3 -11 -5 -18
-17z"/>
<path d="M4451 1384 c0 -11 3 -14 6 -6 3 7 2 16 -1 19 -3 4 -6 -2 -5 -13z"/>
<path d="M4600 1370 c6 -11 8 -26 4 -32 -4 -7 -3 -8 4 -4 7 4 12 2 12 -5 0 -7
3 -10 6 -7 6 6 -23 68 -32 68 -2 0 0 -9 6 -20z"/>
<path d="M501 1253 c4 -60 9 -149 12 -199 4 -94 25 -148 52 -138 18 7 27 32
15 39 -6 4 -10 -1 -10 -9 0 -23 -17 -20 -30 5 -7 11 -16 108 -23 215 -6 107
-13 194 -17 194 -3 0 -2 -48 1 -107z"/>
<path d="M1558 1338 c-3 -7 1 -26 8 -43 l13 -30 -2 28 c-1 15 -5 27 -9 27 -4
0 -5 7 -2 15 4 8 4 15 1 15 -3 0 -7 -6 -9 -12z"/>
<path d="M3744 1275 c1 -24 4 -47 8 -50 4 -4 5 4 2 19 -2 15 0 35 6 45 7 14 6
20 -3 24 -10 4 -13 -7 -13 -38z"/>
<path d="M1250 1306 c0 -2 7 -7 16 -10 8 -3 12 -2 9 4 -6 10 -25 14 -25 6z"/>
<path d="M4485 1300 c3 -5 8 -10 11 -10 2 0 4 5 4 10 0 6 -5 10 -11 10 -5 0
-7 -4 -4 -10z"/>
<path d="M1571 1214 c0 -11 3 -14 6 -6 3 7 2 16 -1 19 -3 4 -6 -2 -5 -13z"/>
<path d="M4580 1196 c0 -2 8 -10 18 -17 15 -13 16 -12 3 4 -13 16 -21 21 -21
13z"/>
<path d="M4854 1188 c-5 -8 -2 -9 9 -5 10 3 17 2 17 -3 0 -6 4 -10 10 -10 5 0
7 7 4 15 -7 18 -30 20 -40 3z"/>
<path d="M1431 1179 c13 -8 97 -13 88 -5 -2 2 -26 6 -53 9 -30 3 -43 1 -35 -4z"/>
<path d="M1340 1171 c0 -10 19 -25 25 -20 1 2 -3 10 -11 17 -8 7 -14 8 -14 3z"/>
<path d="M1545 1171 c-3 -5 -2 -12 3 -15 5 -3 9 1 9 9 0 17 -3 19 -12 6z"/>
<path d="M4750 1169 c0 -5 -4 -7 -10 -4 -14 9 -13 -8 2 -23 18 -18 24 -15 24
13 0 14 -4 25 -8 25 -4 0 -8 -5 -8 -11z"/>
<path d="M961 1165 c-1 -5 -4 -26 -6 -44 -2 -27 -1 -31 7 -18 5 10 7 30 5 45
-2 15 -5 23 -6 17z"/>
<path d="M1435 1150 c19 -8 73 -14 64 -6 -2 2 -22 6 -44 9 -28 5 -34 4 -20 -3z"/>
<path d="M5342 1140 c0 -14 2 -19 5 -12 2 6 2 18 0 25 -3 6 -5 1 -5 -13z"/>
<path d="M922 1138 c-9 -9 -9 -15 1 -27 9 -12 9 -13 0 -7 -8 4 -13 2 -13 -7 0
-7 6 -14 13 -14 9 0 14 13 14 34 0 18 -1 33 -2 33 0 0 -6 -5 -13 -12z"/>
<path d="M1415 1135 c17 -8 41 -14 55 -14 15 0 5 6 -25 14 -62 17 -69 17 -30
0z"/>
<path d="M2040 1135 c-6 -8 -10 -19 -8 -24 1 -6 8 1 15 14 13 28 11 31 -7 10z"/>
<path d="M2066 1087 c2 -14 0 -29 -6 -32 -5 -3 -10 -11 -10 -18 0 -6 6 -2 14
9 15 20 16 47 3 60 -3 4 -4 -5 -1 -19z"/>
<path d="M2032 1070 c0 -14 2 -19 5 -12 2 6 2 18 0 25 -3 6 -5 1 -5 -13z"/>
<path d="M4650 1059 c0 -15 18 -19 23 -6 3 8 -1 14 -9 14 -8 0 -14 -4 -14 -8z"/>
<path d="M5941 1039 c-6 -18 -9 -34 -7 -36 2 -2 9 10 15 28 6 18 9 34 7 36 -2
2 -9 -10 -15 -28z"/>
<path d="M3948 1048 c-16 -6 -28 -14 -28 -19 0 -5 11 -4 26 1 17 7 31 7 42 0
15 -9 15 -10 -2 -8 -29 4 -31 -20 -3 -33 15 -7 23 -17 20 -25 -7 -19 5 -64 17
-64 6 0 5 11 -2 26 -9 20 -9 30 0 45 7 10 12 29 12 41 0 18 -2 20 -9 8 -6 -8
-7 -18 -4 -24 3 -5 1 -6 -5 -3 -5 4 -8 15 -6 25 7 25 -25 41 -58 30z"/>
<path d="M4680 1021 c0 -6 4 -13 10 -16 6 -3 7 1 4 9 -7 18 -14 21 -14 7z"/>
<path d="M2046 1004 c-8 -20 -7 -84 2 -106 4 -10 7 14 7 52 0 39 -1 70 -1 70
-1 0 -5 -7 -8 -16z"/>
<path d="M5318 985 c-6 -13 -14 -22 -19 -20 -4 3 -5 -5 -2 -17 4 -19 3 -20 -6
-8 -9 13 -11 13 -11 -2 0 -30 18 -20 36 20 10 20 19 40 21 45 2 4 2 7 -2 7 -3
0 -10 -11 -17 -25z"/>
<path d="M5371 965 c-1 -16 -9 -39 -18 -50 -15 -20 -15 -20 -10 3 3 12 1 20
-4 16 -5 -3 -9 -16 -9 -30 0 -14 4 -22 10 -19 15 9 12 -8 -7 -35 -9 -14 -13
-22 -8 -18 4 4 14 3 21 -3 9 -8 12 -4 9 16 -2 19 1 25 12 21 20 -8 25 13 14
74 -6 37 -9 45 -10 25z m-1 -66 c0 -11 -4 -18 -10 -14 -5 3 -7 12 -3 20 7 21
13 19 13 -6z"/>
<path d="M680 972 c0 -15 39 -25 76 -19 23 3 21 4 -11 6 -23 0 -46 6 -53 13
-9 9 -12 9 -12 0z"/>
<path d="M604 955 c20 -20 46 -19 46 3 0 14 -2 15 -10 2 -7 -12 -12 -12 -22
-2 -6 6 -16 12 -21 12 -5 0 -2 -7 7 -15z"/>
<path d="M5915 928 l-20 -21 23 12 c12 6 22 16 22 21 0 13 -2 12 -25 -12z"/>
<path d="M5999 938 c-1 -7 -1 -17 0 -22 1 -5 -5 -6 -14 -2 -9 3 -14 2 -11 -3
3 -5 -4 -22 -16 -37 -18 -23 -19 -26 -4 -14 18 14 19 13 13 -20 l-6 -35 14 30
c8 17 12 38 9 48 -3 9 -1 17 5 17 5 0 12 -12 14 -27 2 -16 5 -4 6 25 0 28 -1
52 -4 52 -3 0 -6 -6 -6 -12z"/>
<path d="M2092 859 c-7 -36 -12 -82 -12 -102 0 -20 -5 -39 -12 -43 -8 -5 -9
-2 -5 10 4 9 3 15 -2 11 -10 -6 -11 -45 -1 -45 3 0 11 5 17 11 7 7 12 6 17 -6
5 -13 0 -16 -22 -14 -15 1 -35 -2 -44 -6 -10 -4 -25 -5 -33 -1 -8 3 -15 1 -15
-3 0 -5 -7 -12 -16 -15 -14 -5 -15 -4 -5 8 11 13 9 14 -11 9 -12 -3 -36 -6
-53 -6 -16 0 -22 -2 -12 -4 9 -2 17 -11 17 -19 0 -8 10 -14 25 -14 29 0 34
-24 10 -49 -11 -13 -15 -69 -19 -283 -2 -147 -7 -271 -10 -277 -3 -5 1 -11 8
-14 11 -4 14 2 12 26 -3 24 -2 25 2 7 5 -21 7 -17 13 20 l7 45 -3 -52 c-1 -37
2 -53 11 -53 7 0 15 6 17 13 4 9 6 9 6 0 1 -15 551 -18 551 -3 0 5 -12 46 -26
90 -14 45 -23 84 -21 87 3 2 8 -5 12 -18 6 -17 9 -19 16 -8 12 20 10 59 -5 94
l-14 30 2 -36 c0 -21 4 -35 9 -32 4 2 7 -4 7 -13 0 -16 -1 -16 -20 1 -11 10
-17 22 -14 26 3 5 0 9 -7 9 -8 0 -9 -10 -5 -32 12 -62 -7 -17 -23 54 -14 60
-20 72 -35 70 -11 -2 -15 1 -11 7 3 6 1 11 -4 11 -6 0 -11 -9 -11 -21 0 -16 5
-19 23 -15 12 3 16 3 9 0 -6 -3 -9 -10 -6 -16 5 -7 1 -7 -12 0 -11 6 -22 32
-31 73 -7 34 -18 67 -24 73 -9 8 -10 5 -6 -12 3 -12 1 -20 -4 -16 -5 3 -9 0
-9 -6 0 -6 -5 -8 -11 -4 -8 5 -8 9 1 14 8 5 8 10 2 14 -17 10 -23 -25 -7 -47
8 -12 15 -26 15 -31 0 -15 -21 18 -64 97 -36 68 -41 112 -11 101 9 -4 12 -19
11 -44 -2 -21 1 -44 5 -52 6 -8 9 -1 10 22 1 46 8 130 13 153 3 11 0 16 -7 14
-7 -2 -11 -15 -9 -28 1 -17 -1 -20 -7 -11 -6 11 -9 9 -13 -6 -3 -11 -1 -26 6
-33 8 -9 7 -11 -6 -6 -10 4 -21 0 -26 -9 -7 -12 -10 -13 -19 -2 -17 22 -48
121 -49 160 -1 41 -22 98 -36 98 -5 0 -7 3 -5 8 2 4 1 30 -2 57 l-7 50 -12
-66z m35 -121 c-2 -13 -4 -5 -4 17 -1 22 1 32 4 23 2 -10 2 -28 0 -40z m-20
-20 c-3 -8 -6 -5 -6 6 -1 11 2 17 5 13 3 -3 4 -12 1 -19z m33 -52 c0 -26 -6
-18 -14 19 -5 22 -4 26 4 15 5 -8 10 -24 10 -34z m-44 -5 c-3 -5 -18 -11 -33
-13 -16 -3 -37 -8 -48 -12 -20 -7 -20 -7 0 5 10 7 33 16 50 20 16 4 31 7 33 8
2 1 1 -3 -2 -8z m-129 -234 c-2 -23 -3 -1 -3 48 0 50 1 68 3 42 2 -26 2 -67 0
-90z m83 109 c0 -2 -7 -7 -16 -10 -8 -3 -12 -2 -9 4 6 10 25 14 25 6z m-22
-67 c-3 -20 -5 -19 -9 9 -3 20 -2 29 4 23 5 -5 7 -19 5 -32z m9 -91 c-2 -13
-4 -3 -4 22 0 25 2 35 4 23 2 -13 2 -33 0 -45z m-100 -75 c-2 -16 -4 -3 -4 27
0 30 2 43 4 28 2 -16 2 -40 0 -55z m40 5 c-2 -13 -4 -3 -4 22 0 25 2 35 4 23
2 -13 2 -33 0 -45z m60 -65 c-2 -21 -4 -4 -4 37 0 41 2 58 4 38 2 -21 2 -55 0
-75z m-93 -61 l-8 -67 -7 45 c-10 60 -9 109 1 60 l7 -35 2 45 c2 25 5 39 8 32
3 -8 2 -44 -3 -80z m93 -104 c-2 -24 -4 -5 -4 42 0 47 2 66 4 43 2 -24 2 -62
0 -85z m-60 60 c-2 -13 -4 -5 -4 17 -1 22 1 32 4 23 2 -10 2 -28 0 -40z m290
20 c-3 -8 -6 -5 -6 6 -1 11 2 17 5 13 3 -3 4 -12 1 -19z"/>
<path d="M5260 916 c0 -2 7 -9 15 -16 9 -7 15 -8 15 -2 0 5 -7 12 -15 16 -8 3
-15 4 -15 2z"/>
<path d="M4011 868 c1 -13 -1 -35 -6 -51 -6 -23 -10 -25 -22 -15 -11 9 -16 9
-23 -2 -6 -10 -9 -9 -13 6 -3 10 -4 -6 -2 -36 1 -30 8 -56 14 -58 17 -6 13
-42 -4 -42 -8 0 -15 -4 -15 -10 0 -5 7 -7 15 -4 20 8 56 86 61 133 9 74 9 101
1 101 -5 0 -7 -10 -6 -22z m-20 -125 c-12 -20 -14 -14 -5 12 4 9 9 14 11 11 3
-2 0 -13 -6 -23z"/>
<path d="M2050 820 c0 -11 4 -20 9 -20 5 0 7 9 4 20 -3 11 -7 20 -9 20 -2 0
-4 -9 -4 -20z"/>
<path d="M1180 820 c0 -5 5 -10 10 -10 6 0 10 5 10 10 0 6 -4 10 -10 10 -5 0
-10 -4 -10 -10z"/>
<path d="M1990 807 c0 -22 -5 -27 -27 -28 -24 -2 -25 -2 -5 -6 12 -2 22 -9 22
-14 0 -5 7 -9 15 -9 13 0 15 7 9 38 -8 46 -14 54 -14 19z"/>
<path d="M955 782 c4 -52 4 -52 17 -52 9 0 9 3 1 11 -7 7 -9 24 -6 39 3 15 1
30 -5 34 -6 3 -9 -9 -7 -32z"/>
<path d="M1110 790 c20 -13 33 -13 25 0 -3 6 -14 10 -23 10 -15 0 -15 -2 -2
-10z"/>
<path d="M4850 796 c0 -2 7 -7 16 -10 8 -3 12 -2 9 4 -6 10 -25 14 -25 6z"/>
<path d="M2050 776 c0 -9 5 -16 10 -16 6 0 10 4 10 9 0 6 -4 13 -10 16 -5 3
-10 -1 -10 -9z"/>
<path d="M1906 772 c-3 -5 1 -9 9 -9 8 0 12 4 9 9 -3 4 -7 8 -9 8 -2 0 -6 -4
-9 -8z"/>
<path d="M2261 764 c0 -11 3 -14 6 -6 3 7 2 16 -1 19 -3 4 -6 -2 -5 -13z"/>
<path d="M4977 769 c7 -7 15 -10 18 -7 3 3 -2 9 -12 12 -14 6 -15 5 -6 -5z"/>
<path d="M998 763 c7 -3 16 -2 19 1 4 3 -2 6 -13 5 -11 0 -14 -3 -6 -6z"/>
<path d="M4953 755 c0 -8 4 -15 9 -15 4 0 8 4 8 9 0 6 -4 12 -8 15 -5 3 -9 -1
-9 -9z"/>
<path d="M5017 759 c7 -7 15 -10 18 -7 3 3 -2 9 -12 12 -14 6 -15 5 -6 -5z"/>
<path d="M1914 742 c5 -8 -5 -13 -31 -14 l-38 -1 34 -4 c36 -5 61 9 40 22 -8
5 -10 4 -5 -3z"/>
<path d="M5048 733 c6 -2 18 -2 25 0 6 3 1 5 -13 5 -14 0 -19 -2 -12 -5z"/>
<path d="M998 723 c7 -3 16 -2 19 1 4 3 -2 6 -13 5 -11 0 -14 -3 -6 -6z"/>
<path d="M1158 723 c7 -3 16 -2 19 1 4 3 -2 6 -13 5 -11 0 -14 -3 -6 -6z"/>
<path d="M1810 720 c-9 -6 -10 -10 -3 -10 6 0 15 5 18 10 8 12 4 12 -15 0z"/>
<path d="M1038 713 c7 -3 16 -2 19 1 4 3 -2 6 -13 5 -11 0 -14 -3 -6 -6z"/>
<path d="M1198 713 c7 -3 16 -2 19 1 4 3 -2 6 -13 5 -11 0 -14 -3 -6 -6z"/>
<path d="M1078 703 c7 -3 16 -2 19 1 4 3 -2 6 -13 5 -11 0 -14 -3 -6 -6z"/>
<path d="M1150 693 c14 -12 27 -18 30 -14 3 5 12 11 20 14 9 3 4 6 -12 6 -14
1 -35 4 -45 8 -12 4 -10 0 7 -14z"/>
<path d="M1260 700 c8 -5 22 -9 30 -9 10 0 8 3 -5 9 -27 12 -43 12 -25 0z"/>
<path d="M1228 683 c7 -3 16 -2 19 1 4 3 -2 6 -13 5 -11 0 -14 -3 -6 -6z"/>
<path d="M1330 680 c8 -5 20 -10 25 -10 6 0 3 5 -5 10 -8 5 -19 10 -25 10 -5
0 -3 -5 5 -10z"/>
<path d="M2008 683 c7 -3 16 -2 19 1 4 3 -2 6 -13 5 -11 0 -14 -3 -6 -6z"/>
<path d="M2238 683 c7 -3 16 -2 19 1 4 3 -2 6 -13 5 -11 0 -14 -3 -6 -6z"/>
<path d="M3893 620 c0 -41 2 -58 4 -37 2 20 2 54 0 75 -2 20 -4 3 -4 -38z"/>
<path d="M1105 463 c4 -120 9 -273 9 -340 1 -67 5 -118 9 -114 5 5 8 26 7 47
-3 93 -3 131 -1 169 1 22 -2 85 -7 140 -5 55 -9 148 -8 208 0 59 -3 107 -8
107 -5 0 -6 -90 -1 -217z"/>
<path d="M1260 676 c0 -2 35 -12 78 -22 42 -10 84 -24 93 -31 8 -7 20 -13 26
-13 6 0 13 -4 15 -10 3 -8 86 -26 298 -62 49 -8 76 -8 105 0 33 10 34 11 8 7
-18 -2 -47 1 -65 7 l-33 12 59 13 c32 7 61 11 66 8 4 -3 13 2 20 10 16 19 11
19 -80 -5 -70 -19 -78 -19 -135 -5 -98 26 -288 65 -313 65 -13 0 -21 3 -19 8
3 4 -7 7 -21 7 -15 0 -44 4 -64 8 -21 4 -38 6 -38 3z m260 -61 c0 -10 -40 -10
-43 0 -4 8 3 10 19 7 13 -2 24 -6 24 -7z m86 -24 c17 -11 15 -12 -15 -7 -18 3
-45 6 -60 7 -23 0 -24 1 -6 8 26 11 56 7 81 -8z m103 -17 c2 -2 -14 -4 -37 -4
-23 0 -42 5 -42 10 0 10 67 4 79 -6z"/>
<path d="M2270 669 c0 -5 5 -7 10 -4 6 3 10 8 10 11 0 2 -4 4 -10 4 -5 0 -10
-5 -10 -11z"/>
<path d="M968 665 c-3 -3 -54 -10 -113 -15 -59 -5 -110 -12 -113 -15 -12 -11
6 -15 34 -6 16 5 66 12 111 15 l82 5 4 -42 c3 -40 4 -39 5 11 2 51 1 57 -10
47z"/>
<path d="M2200 617 c0 -20 3 -38 8 -40 9 -6 8 61 -2 70 -3 3 -6 -10 -6 -30z"/>
<path d="M639 636 c-2 -3 -26 -6 -52 -7 -26 -2 -53 -9 -59 -16 -6 -7 -16 -13
-23 -13 -17 0 -28 -65 -16 -89 6 -10 7 -22 3 -26 -4 -4 0 -6 8 -5 27 4 40 0
40 -12 0 -9 -3 -9 -11 -1 -9 9 -15 8 -27 -3 -13 -13 -12 -17 2 -33 9 -10 16
-24 16 -33 0 -8 11 -25 24 -37 24 -22 27 -23 78 -10 61 15 52 13 103 23 34 6
40 11 40 31 0 24 -1 24 -15 6 -19 -25 -163 -64 -158 -43 1 4 -4 20 -10 35 -7
16 -10 32 -7 37 3 5 1 10 -3 12 -4 1 -18 34 -30 72 -29 89 -31 88 115 91 58 1
83 8 71 20 -2 3 -19 0 -37 -6 -25 -9 -35 -9 -40 0 -4 6 -9 9 -12 7z m-122 -92
c-3 -3 -12 -4 -19 -1 -8 3 -5 6 6 6 11 1 17 -2 13 -5z m52 -136 c1 -5 -7 -8
-16 -8 -15 0 -16 -2 -3 -9 8 -6 18 -7 22 -5 4 3 8 -2 8 -10 0 -21 -14 -20 -31
0 -18 22 -20 45 -6 62 9 12 12 11 18 -5 4 -10 8 -21 8 -25z"/>
<path d="M5026 624 c-3 -9 -4 -19 -1 -22 3 -3 5 1 5 8 0 9 9 5 25 -10 14 -13
25 -27 25 -31 0 -12 -31 -3 -41 12 -5 8 -9 10 -9 6 0 -15 41 -69 120 -157 119
-133 200 -232 216 -266 8 -17 43 -62 78 -99 46 -51 65 -65 71 -55 5 8 4 11 -3
6 -6 -3 -13 -2 -16 3 -13 20 23 18 37 -2 8 -12 17 -20 20 -17 3 3 -24 39 -60
80 -35 41 -90 109 -121 150 -30 41 -110 139 -176 218 -67 79 -130 155 -142
169 -19 22 -22 23 -28 7z m99 -106 c20 -21 34 -42 31 -47 -3 -5 2 -15 12 -22
16 -13 16 -12 3 6 -7 11 -2 7 13 -8 14 -16 23 -33 20 -39 -4 -6 -2 -8 3 -5 6
4 18 -2 28 -13 10 -11 14 -20 9 -20 -5 0 -1 -5 8 -10 9 -6 55 -61 102 -123 47
-62 94 -121 105 -132 12 -10 21 -24 21 -32 0 -8 4 -12 9 -8 5 3 13 0 17 -6 3
-6 1 -15 -6 -19 -17 -10 -44 16 -34 32 4 7 4 10 -1 6 -11 -11 -36 12 -28 25 3
5 1 7 -4 4 -11 -7 -63 53 -63 71 0 10 -87 122 -103 133 -5 4 -6 12 -2 19 5 8
4 11 -2 7 -14 -9 -86 71 -77 85 4 6 3 8 -4 5 -10 -7 -93 77 -112 113 -17 32
19 18 55 -22z"/>
<path d="M1122 580 c0 -14 2 -19 5 -12 2 6 2 18 0 25 -3 6 -5 1 -5 -13z"/>
<path d="M53 560 l-43 -19 2 -218 c1 -120 3 -190 5 -155 2 34 8 60 12 57 5 -2
11 6 13 20 3 13 1 22 -3 19 -16 -9 -9 14 8 32 16 15 17 15 24 -2 11 -28 10
-36 -3 -28 -10 5 -10 4 -1 -6 6 -7 9 -19 5 -28 -5 -13 -7 -12 -13 4 -6 16 -8
15 -8 -8 -1 -16 4 -28 9 -28 16 0 12 -21 -7 -37 -10 -8 -12 -11 -5 -8 9 5 12
1 10 -10 -2 -10 2 -20 8 -22 6 -2 10 6 9 19 -1 13 0 27 4 33 3 5 4 22 2 37 -1
16 2 28 9 28 6 0 9 4 6 9 -3 4 6 6 19 3 26 -5 33 -26 13 -38 -8 -5 -9 -2 -5 9
4 10 2 17 -4 17 -7 0 -9 -9 -5 -22 4 -13 8 -28 10 -35 4 -22 16 -27 16 -7 1
14 5 10 14 -11 7 -16 10 -31 6 -33 -3 -1 -4 -17 -2 -34 5 -31 5 -31 -19 -15
-16 12 -42 17 -79 16 l-55 -2 58 -7 c54 -7 133 -48 143 -75 3 -6 18 -11 34
-11 24 -1 28 1 21 15 -5 9 -18 50 -29 91 -34 129 -34 127 -13 133 18 4 34 58
24 84 -3 7 -26 20 -51 29 -26 10 -51 21 -57 26 -5 5 2 5 18 -1 30 -12 32 -5
17 54 -7 29 -8 29 -10 5 -1 -14 -2 -28 -1 -32 1 -7 -49 -13 -72 -9 -5 1 -5 -4
-1 -10 4 -8 0 -9 -15 -4 -13 4 -21 2 -21 -5 0 -6 4 -8 10 -5 6 3 10 1 10 -4 0
-6 -5 -11 -11 -11 -6 0 -8 -7 -5 -16 6 -16 -20 -51 -31 -40 -4 3 -1 12 5 18 7
7 12 17 12 23 0 5 -5 3 -10 -5 -7 -10 -10 18 -10 88 l0 103 37 15 c67 29 134
29 192 3 40 -18 51 -28 47 -42 -3 -14 -1 -16 9 -7 9 8 17 4 29 -15 9 -14 14
-31 10 -37 -4 -6 -3 -8 4 -4 6 3 13 2 17 -4 3 -5 14 -10 23 -9 12 0 11 3 -5 9
-13 5 -23 14 -23 19 0 19 -63 82 -101 102 -51 26 -149 25 -206 -1z m119 -210
c53 -15 67 -30 61 -67 -4 -27 -10 -33 -29 -33 -17 0 -22 -4 -18 -15 4 -10 0
-15 -11 -15 -9 0 -19 9 -22 19 -3 11 -17 21 -33 24 -40 8 -59 66 -35 103 15
24 18 25 35 9 10 -9 33 -20 52 -25z m18 -150 c0 -4 -11 -5 -25 -2 -14 2 -25 8
-25 12 0 4 11 5 25 2 14 -2 25 -8 25 -12z m7 -132 c-3 -7 -5 -2 -5 12 0 14 2
19 5 13 2 -7 2 -19 0 -25z"/>
<path d="M3828 553 c0 -5 -2 -19 -4 -33 -1 -14 -5 -34 -7 -45 -11 -46 -17 -79
-11 -67 3 6 9 10 13 7 5 -2 8 8 9 23 0 15 3 48 6 75 4 26 4 47 1 47 -3 0 -6
-3 -7 -7z"/>
<path d="M1120 517 c0 -20 4 -37 10 -37 5 0 7 14 3 33 -8 45 -13 47 -13 4z"/>
<path d="M1046 461 c-4 -5 3 -7 14 -4 23 6 26 13 6 13 -8 0 -17 -4 -20 -9z"/>
<path d="M1043 428 c-11 -13 -24 -71 -29 -121 -1 -15 -7 -34 -13 -41 -6 -8
-13 -45 -16 -82 l-4 -69 10 65 c6 36 17 77 24 91 8 14 12 29 9 31 -6 7 14 96
27 121 11 20 6 23 -8 5z"/>
<path d="M410 418 c0 -7 11 -32 24 -55 14 -24 22 -52 20 -65 -5 -23 -4 -23 6
1 8 19 6 32 -15 68 -14 25 -22 49 -19 54 3 5 0 9 -5 9 -6 0 -11 -6 -11 -12z"/>
<path d="M787 384 c3 -27 7 -51 9 -53 8 -9 3 75 -5 88 -5 8 -7 -5 -4 -35z"/>
<path d="M3836 403 c-6 -14 -5 -15 5 -6 7 7 10 15 7 18 -3 3 -9 -2 -12 -12z"/>
<path d="M2412 380 c0 -14 2 -19 5 -12 2 6 2 18 0 25 -3 6 -5 1 -5 -13z"/>
<path d="M3801 363 c0 -6 -6 -24 -13 -40 -6 -15 -11 -31 -10 -35 3 -14 -27
-16 -45 -3 -17 13 -17 14 2 11 11 -2 14 -1 7 1 -7 3 -10 9 -7 14 4 5 1 9 -4 9
-12 0 -12 -1 -16 -38 -1 -13 -8 -29 -15 -35 -10 -9 -11 -9 -6 1 9 16 16 86 8
77 -5 -5 -9 -29 -15 -95 -1 -14 -7 -24 -14 -23 -7 2 -11 -7 -10 -20 2 -36 -14
-107 -24 -107 -6 0 -7 5 -3 12 4 7 3 8 -4 4 -6 -4 -9 -13 -5 -21 6 -18 -13
-20 -21 -2 -2 6 -4 -7 -3 -30 2 -44 12 -57 20 -26 4 17 5 17 6 1 0 -10 5 -18
11 -18 14 0 32 39 24 53 -4 6 -3 9 1 4 13 -11 87 134 75 148 -5 6 -5 17 0 24
4 8 6 20 3 27 -3 9 2 12 15 9 14 -2 23 7 36 36 10 21 15 47 13 57 -3 9 -5 12
-6 5z m-73 -130 c-1 -10 0 -22 3 -28 4 -5 -8 -39 -26 -74 -28 -55 -34 -61 -39
-43 -4 12 -2 30 3 41 6 11 11 26 11 35 0 13 40 84 48 86 2 0 2 -8 0 -17z m-81
-185 c-3 -8 -6 -5 -6 6 -1 11 2 17 5 13 3 -3 4 -12 1 -19z"/>
<path d="M3701 196 c-7 -8 -11 -23 -8 -33 4 -15 5 -14 6 4 0 12 7 23 14 26 6
2 9 7 6 11 -3 4 -12 0 -18 -8z"/>
<path d="M3675 120 c-4 -12 -5 -24 -2 -27 3 -2 8 5 12 17 4 12 5 24 2 27 -3 2
-8 -5 -12 -17z"/>
<path d="M814 180 c0 -117 3 -149 8 -110 4 30 5 65 3 77 -3 12 -1 33 5 48 6
16 6 24 0 20 -5 -3 -10 23 -12 62 -2 37 -4 -6 -4 -97z"/>
<path d="M2470 325 c0 -5 5 -17 10 -25 5 -8 10 -10 10 -5 0 6 -5 17 -10 25 -5
8 -10 11 -10 5z"/>
<path d="M382 230 c-29 -32 -52 -61 -52 -64 0 -3 18 -15 40 -26 45 -23 92 -77
101 -117 l7 -28 1 32 c1 24 -9 41 -44 77 -24 25 -50 46 -57 46 -7 0 -19 4 -27
9 -11 7 -6 16 23 41 20 18 36 37 36 42 0 6 8 17 17 24 10 7 15 15 12 18 -3 3
-28 -21 -57 -54z"/>
<path d="M961 254 c0 -11 3 -14 6 -6 3 7 2 16 -1 19 -3 4 -6 -2 -5 -13z"/>
<path d="M1016 252 c-2 -4 -3 -21 -1 -37 1 -16 -1 -40 -6 -52 -6 -16 -5 -21 5
-17 8 3 12 23 12 59 -1 57 -2 60 -10 47z"/>
<path d="M3652 240 c2 -14 -2 -24 -8 -23 -6 1 -16 -9 -22 -22 -7 -14 -8 -25
-3 -25 5 0 12 6 15 13 4 6 4 2 2 -9 -2 -12 0 -28 5 -35 6 -10 8 -9 8 6 0 45 8
70 19 67 10 -2 10 3 1 20 -17 34 -21 36 -17 8z"/>
<path d="M3810 251 c0 -6 4 -13 10 -16 6 -3 7 1 4 9 -7 18 -14 21 -14 7z"/>
<path d="M3756 235 c-9 -26 -7 -32 5 -12 6 10 9 21 6 23 -2 3 -7 -2 -11 -11z"/>
<path d="M947 223 c-6 -12 4 -113 11 -113 9 0 7 78 -2 87 -10 10 -7 25 4 18 6
-3 10 -1 10 4 0 12 -17 15 -23 4z"/>
<path d="M923 165 c0 -27 2 -38 4 -22 2 15 2 37 0 50 -2 12 -4 0 -4 -28z"/>
<path d="M100 190 c0 -5 5 -10 11 -10 5 0 7 5 4 10 -3 6 -8 10 -11 10 -2 0 -4
-4 -4 -10z"/>
<path d="M3585 175 c4 -17 11 -34 16 -39 5 -5 4 5 -1 24 -12 42 -24 55 -15 15z"/>
<path d="M295 169 c-4 -6 -5 -12 -2 -15 2 -3 7 2 10 11 7 17 1 20 -8 4z"/>
<path d="M3785 150 c-4 -17 -5 -34 -2 -36 2 -3 7 10 11 27 8 42 0 50 -9 9z"/>
<path d="M5074 128 c26 -32 44 -62 41 -68 -4 -6 -11 -8 -16 -4 -5 3 -7 9 -4
14 3 5 0 12 -6 16 -8 4 -9 3 -5 -4 14 -23 -4 -12 -35 21 -20 20 -16 13 9 -18
22 -27 50 -59 63 -70 l24 -20 -19 23 c-15 17 -17 25 -8 34 12 12 13 10 16 -12
0 -5 6 -10 11 -11 6 0 19 -8 29 -17 35 -30 -18 37 -85 108 l-62 65 47 -57z"/>
<path d="M97 140 c-3 -11 -2 -22 2 -24 4 -3 8 6 9 20 2 29 -4 31 -11 4z"/>
<path d="M130 139 c0 -5 5 -7 10 -4 6 3 10 8 10 11 0 2 -4 4 -10 4 -5 0 -10
-5 -10 -11z"/>
<path d="M1018 118 c6 -7 17 -38 25 -68 8 -30 15 -46 16 -35 0 36 -24 110 -39
113 -10 2 -11 0 -2 -10z"/>
<path d="M3799 83 c6 -12 16 -25 21 -28 6 -4 8 -16 5 -28 -5 -16 -4 -18 3 -8
9 12 11 12 15 0 2 -8 2 -3 0 11 -2 14 -16 36 -30 50 -23 23 -24 23 -14 3z"/>
<path d="M3582 29 c1 -17 4 -25 8 -18 7 10 2 49 -5 49 -2 0 -3 -14 -3 -31z"/>
<path d="M792 25 c0 -17 2 -22 5 -12 2 9 2 23 0 30 -3 6 -5 -1 -5 -18z"/>
<path d="M861 34 c0 -11 3 -14 6 -6 3 7 2 16 -1 19 -3 4 -6 -2 -5 -13z"/>
<path d="M891 34 c0 -11 3 -14 6 -6 3 7 2 16 -1 19 -3 4 -6 -2 -5 -13z"/>
<path d="M3801 43 c-1 -6 -4 -20 -7 -30 -5 -17 -5 -17 6 0 6 10 9 23 6 30 -3
9 -5 9 -5 0z"/>
</g>
</svg>
